<svg width="21" height="20" viewBox="0 0 21 20" fill="none" xmlns="http://www.w3.org/2000/svg">
<path fill-rule="evenodd" clip-rule="evenodd" d="M15.9166 7.91667C15.9166 9.35326 15.3459 10.731 14.3301 11.7468C13.3143 12.7627 11.9365 13.3333 10.5 13.3333C9.06337 13.3333 7.68562 12.7627 6.6698 11.7468C5.65398 10.731 5.08329 9.35326 5.08329 7.91667C5.08329 6.48008 5.65398 5.10233 6.6698 4.0865C7.68562 3.07068 9.06337 2.5 10.5 2.5C11.9365 2.5 13.3143 3.07068 14.3301 4.0865C15.3459 5.10233 15.9166 6.48008 15.9166 7.91667ZM10.4733 4.985C9.8974 4.98495 9.33438 5.15539 8.8552 5.47483C8.37603 5.79428 8.00214 6.24842 7.78068 6.78003C7.55921 7.31164 7.50008 7.89691 7.61073 8.46208C7.72138 9.02724 7.99687 9.547 8.40246 9.95583L8.41079 9.96417L10.4733 7.90167V4.985ZM4.66663 15H9.66663V17.5H4.66663V15ZM11.3333 15H16.3333V17.5H11.3333V15Z" fill="#1E2329"/>
</svg>
