<svg width="17" height="16" viewBox="0 0 17 16" fill="none" xmlns="http://www.w3.org/2000/svg">
<path fill-rule="evenodd" clip-rule="evenodd" d="M14.6699 8C14.6699 8.78793 14.5147 9.56815 14.2132 10.2961C13.9117 11.0241 13.4697 11.6855 12.9126 12.2426C12.3554 12.7998 11.694 13.2417 10.966 13.5433C10.2381 13.8448 9.45785 14 8.66992 14C7.88199 14 7.10177 13.8448 6.37382 13.5433C5.64587 13.2417 4.98443 12.7998 4.42728 12.2426C3.87013 11.6855 3.42817 11.0241 3.12664 10.2961C2.82512 9.56815 2.66992 8.78793 2.66992 8C2.66992 6.4087 3.30206 4.88258 4.42728 3.75736C5.5525 2.63214 7.07862 2 8.66992 2C10.2612 2 11.7873 2.63214 12.9126 3.75736C14.0378 4.88258 14.6699 6.4087 14.6699 8ZM9.84792 8L11.8519 10.0033L10.6733 11.182L8.66992 9.178L6.66659 11.1813L5.48792 10.0027L7.49126 7.99933L5.48792 5.996L6.66659 4.818L8.66992 6.82L10.6733 4.81667L11.8519 5.99467L9.84792 8Z" fill="#707A8A"/>
</svg>
