<svg width="15" height="15" viewBox="0 0 15 15" fill="none" xmlns="http://www.w3.org/2000/svg">
<g clip-path="url(#clip0_1_730)">
<path d="M11.1847 1.47498C11.3394 1.47498 11.4877 1.53642 11.5971 1.64579C11.7064 1.75516 11.7679 1.90349 11.7679 2.05816C11.7679 2.21283 11.7064 2.36117 11.5971 2.47054C11.4877 2.57991 11.3394 2.64135 11.1847 2.64135H2.9085C2.84562 2.64135 2.7853 2.66633 2.74083 2.7108C2.69636 2.75527 2.67138 2.81559 2.67138 2.87848V11.1547C2.67138 11.3093 2.60994 11.4577 2.50057 11.567C2.3912 11.6764 2.24286 11.7379 2.08819 11.7379C1.93352 11.7379 1.78519 11.6764 1.67582 11.567C1.56645 11.4577 1.505 11.3093 1.505 11.1547V2.87848C1.505 2.50624 1.65287 2.14926 1.91608 1.88605C2.17929 1.62284 2.53627 1.47498 2.9085 1.47498H11.1847Z" fill="#1E2329"/>
<path d="M5.24212 3.80817C4.86989 3.80817 4.51291 3.95603 4.2497 4.21924C3.98649 4.48245 3.83862 4.83944 3.83862 5.21167V12.321C3.83862 12.6933 3.98649 13.0503 4.2497 13.3135C4.51291 13.5767 4.86989 13.7245 5.24212 13.7245H12.3515C12.7237 13.7245 13.0807 13.5767 13.3439 13.3135C13.6071 13.0503 13.755 12.6933 13.755 12.321V5.21167C13.755 4.83944 13.6071 4.48245 13.3439 4.21924C13.0807 3.95603 12.7237 3.80817 12.3515 3.80817H5.24212ZM5.005 5.2121C5.005 5.08129 5.11087 4.97498 5.24212 4.97498H12.3515C12.4823 4.97498 12.5886 5.08085 12.5886 5.2121V12.3215C12.5886 12.3844 12.5636 12.4447 12.5192 12.4892C12.4747 12.5336 12.4144 12.5586 12.3515 12.5586H5.24212C5.21098 12.5586 5.18015 12.5525 5.15138 12.5406C5.12261 12.5286 5.09647 12.5112 5.07445 12.4892C5.05243 12.4671 5.03496 12.441 5.02305 12.4122C5.01113 12.3835 5.005 12.3526 5.005 12.3215V5.2121Z" fill="#1E2329"/>
</g>
<defs>
<clipPath id="clip0_1_730">
<rect width="14" height="14" fill="white" transform="translate(0.630005 0.599976)"/>
</clipPath>
</defs>
</svg>
