<svg width="16" height="16" viewBox="0 0 16 16" fill="none" xmlns="http://www.w3.org/2000/svg">
<path d="M11.98 2.47249C11.7942 2.28664 11.5737 2.13923 11.3309 2.03866C11.0881 1.9381 10.8279 1.88637 10.5652 1.88641C10.3024 1.88646 10.0422 1.93829 9.79946 2.03893C9.55673 2.13958 9.33621 2.28708 9.15051 2.47299L3.39001 8.23999C3.14038 8.49015 3.00013 8.82908 3.00001 9.18249V10.6665C3.00001 10.8416 3.0345 11.015 3.10151 11.1768C3.16853 11.3386 3.26675 11.4856 3.39058 11.6094C3.51441 11.7332 3.66141 11.8315 3.8232 11.8985C3.98499 11.9655 4.15839 12 4.33351 12H5.82951C6.18318 12 6.52236 11.8595 6.77251 11.6095L12.5295 5.84999C12.9043 5.47487 13.1149 4.96627 13.1149 4.43599C13.1149 3.9057 12.9043 3.39711 12.5295 3.02199L11.98 2.47249ZM10.0935 3.41549C10.1554 3.35353 10.2289 3.30438 10.3098 3.27085C10.3907 3.23732 10.4774 3.22006 10.565 3.22006C10.6526 3.22006 10.7393 3.23732 10.8202 3.27085C10.9011 3.30438 10.9746 3.35353 11.0365 3.41549L11.586 3.96499C11.846 4.22549 11.846 4.64749 11.586 4.90749L5.82901 10.667H4.33301V9.18299L10.0935 3.41549ZM2.33351 13.3335C2.15674 13.3335 1.98721 13.4037 1.86222 13.5287C1.73723 13.6537 1.66701 13.8232 1.66701 14C1.66701 14.1768 1.73723 14.3463 1.86222 14.4713C1.98721 14.5963 2.15674 14.6665 2.33351 14.6665H14.3335C14.5103 14.6665 14.6798 14.5963 14.8048 14.4713C14.9298 14.3463 15 14.1768 15 14C15 13.8232 14.9298 13.6537 14.8048 13.5287C14.6798 13.4037 14.5103 13.3335 14.3335 13.3335H2.33351Z" fill="#1E2329"/>
</svg>
