<svg width="300" height="578" viewBox="0 0 300 578" fill="none" xmlns="http://www.w3.org/2000/svg">
<path d="M21 54C32.598 54 42 44.598 42 33C42 21.402 32.598 12 21 12C9.40202 12 0 21.402 0 33C0 44.598 9.40202 54 21 54Z" fill="#FF8300"/>
<path d="M17.3132 33.153C17.6382 33.153 17.9017 33.0212 17.9017 32.8587C17.9017 32.6961 17.6382 32.5644 17.3132 32.5644C16.9881 32.5644 16.7246 32.6961 16.7246 32.8587C16.7246 33.0212 16.9881 33.153 17.3132 33.153Z" fill="#009245"/>
<path d="M30.5489 43.6908C29.9391 43.6178 29.6472 43.6061 29.5248 43.5919C29.3812 43.5755 29.1457 43.5543 28.9998 43.5425C27.7073 43.4436 25.1929 43.18 23.2601 42.9069C21.8216 42.7044 19.0318 42.1935 16.4068 40.2654C15.5616 39.6439 14.8083 38.9164 14.2315 38.0335C18.9353 41.2306 24.1264 41.7038 29.586 40.7504C28.5642 40.6185 27.5401 40.5008 26.5184 40.3643C23.771 39.9993 21.1365 39.2719 18.7729 37.7699C17.1531 36.7411 15.7312 35.5004 14.9425 33.6852C14.813 33.3862 14.733 33.0661 14.6317 32.7576C16.6046 34.4598 18.7022 35.8464 21.0895 36.7764C23.472 37.7063 25.9275 38.1254 28.4889 37.8782C27.639 37.4991 26.7703 37.1907 25.9133 36.8564C23.5402 35.9241 21.2778 34.7988 19.4838 32.9248C18.8929 32.308 18.3491 31.6417 17.9795 30.7094C21.5556 33.3698 26.0475 35.2343 28.0604 34.9094L27.9168 34.5257C27.8321 34.2997 27.7379 34.076 27.6319 33.8571C26.7232 31.9878 25.3671 30.4928 23.7262 29.231C22.9611 28.6424 22.1842 28.0585 21.4991 27.3829C20.7316 26.6272 20.7363 25.7961 21.558 25.1204C22.1842 24.6048 22.9352 24.1717 23.7003 23.908C24.7833 23.5337 25.9298 23.35 27.0716 23.0816C26.6196 22.2765 25.9416 21.6479 25.0281 21.4501C24.0888 21.2477 23.0929 21.1111 22.1442 21.1982C20.9929 21.3042 19.8346 21.2877 18.6858 21.1582C15.3733 20.7815 13.0449 22.4224 12.2021 25.6454C11.8419 27.025 11.7595 28.4258 11.8349 29.8454C11.8466 30.0691 11.7407 30.401 11.5735 30.5187C9.79371 31.7783 9.30167 33.5534 9.61008 35.5804C9.67835 36.0348 9.83374 37.146 10.54 38.4644C11.8372 40.8893 13.9301 42.137 14.7753 42.6267C20.8988 46.1793 30.151 43.9263 30.5442 43.6955C30.5536 43.6955 30.5512 43.6908 30.5489 43.6908ZM17.5887 23.3594C17.9041 23.3594 18.1608 23.4866 18.1608 23.6467C18.1608 23.8044 17.9041 23.9339 17.5887 23.9339C17.2732 23.9339 17.0166 23.8067 17.0166 23.6467C17.0166 23.4866 17.2732 23.3594 17.5887 23.3594Z" fill="white"/>
<path d="M67.147 19.3636H72.1534V37.419C72.1534 39.3982 71.6856 41.139 70.75 42.6413C69.8234 44.1437 68.5189 45.3177 66.8366 46.1634C65.1544 47 63.1887 47.4183 60.9396 47.4183C58.6816 47.4183 56.7114 47 55.0291 46.1634C53.3468 45.3177 52.0424 44.1437 51.1158 42.6413C50.1892 41.139 49.7259 39.3982 49.7259 37.419V19.3636H54.7322V37.0007C54.7322 38.1522 54.9841 39.1778 55.4879 40.0774C56.0007 40.977 56.7204 41.6832 57.647 42.196C58.5736 42.6998 59.6712 42.9517 60.9396 42.9517C62.2081 42.9517 63.3056 42.6998 64.2322 42.196C65.1679 41.6832 65.8875 40.977 66.3913 40.0774C66.8951 39.1778 67.147 38.1522 67.147 37.0007V19.3636ZM82.264 19.3636V47H77.3791V19.3636H82.264ZM97.6374 26.2727V30.0511H85.7219V26.2727H97.6374ZM88.6637 21.3068H93.5487V40.7656C93.5487 41.4223 93.6476 41.9261 93.8455 42.277C94.0524 42.6188 94.3223 42.8527 94.6552 42.9787C94.988 43.1046 95.3569 43.1676 95.7617 43.1676C96.0676 43.1676 96.3465 43.1451 96.5984 43.1001C96.8593 43.0552 97.0572 43.0147 97.1921 42.9787L98.0153 46.7976C97.7544 46.8875 97.381 46.9865 96.8952 47.0945C96.4184 47.2024 95.8337 47.2654 95.141 47.2834C93.9175 47.3194 92.8155 47.1349 91.8349 46.7301C90.8543 46.3163 90.0761 45.6776 89.5004 44.8139C88.9336 43.9503 88.6547 42.8707 88.6637 41.5753V21.3068ZM101.723 47V26.2727H106.459V29.7273H106.675C107.053 28.5308 107.701 27.6087 108.618 26.9609C109.545 26.3042 110.602 25.9759 111.79 25.9759C112.059 25.9759 112.361 25.9893 112.694 26.0163C113.036 26.0343 113.319 26.0658 113.544 26.1108V30.6044C113.337 30.5324 113.009 30.4695 112.559 30.4155C112.118 30.3525 111.691 30.321 111.277 30.321C110.386 30.321 109.586 30.5144 108.875 30.9013C108.173 31.2791 107.62 31.8054 107.215 32.4801C106.81 33.1548 106.608 33.933 106.608 34.8146V47H101.723ZM122.383 47.4183C121.069 47.4183 119.886 47.1844 118.834 46.7166C117.79 46.2398 116.962 45.5381 116.351 44.6115C115.748 43.6849 115.447 42.5424 115.447 41.1839C115.447 40.0144 115.662 39.0473 116.094 38.2827C116.526 37.518 117.115 36.9062 117.862 36.4474C118.609 35.9886 119.45 35.6423 120.385 35.4084C121.33 35.1655 122.306 34.9901 123.314 34.8821C124.528 34.7562 125.513 34.6437 126.269 34.5447C127.025 34.4368 127.573 34.2749 127.915 34.0589C128.266 33.834 128.442 33.4877 128.442 33.0199V32.9389C128.442 31.9223 128.14 31.1352 127.537 30.5774C126.935 30.0196 126.067 29.7408 124.933 29.7408C123.737 29.7408 122.787 30.0017 122.086 30.5234C121.393 31.0452 120.925 31.6615 120.682 32.3722L116.121 31.7244C116.481 30.465 117.075 29.4124 117.903 28.5668C118.73 27.7121 119.742 27.0734 120.939 26.6506C122.135 26.2188 123.458 26.0028 124.906 26.0028C125.905 26.0028 126.899 26.1198 127.888 26.3537C128.878 26.5876 129.782 26.9744 130.601 27.5142C131.419 28.045 132.076 28.7692 132.571 29.6868C133.075 30.6044 133.327 31.7514 133.327 33.1278V47H128.631V44.1527H128.469C128.172 44.7285 127.753 45.2682 127.214 45.772C126.683 46.2668 126.013 46.6671 125.203 46.973C124.402 47.2699 123.462 47.4183 122.383 47.4183ZM123.651 43.8288C124.632 43.8288 125.482 43.6354 126.202 43.2486C126.921 42.8527 127.474 42.331 127.861 41.6832C128.257 41.0355 128.455 40.3293 128.455 39.5646V37.1222C128.302 37.2481 128.041 37.3651 127.672 37.473C127.313 37.581 126.908 37.6754 126.458 37.7564C126.008 37.8374 125.563 37.9093 125.122 37.9723C124.681 38.0353 124.299 38.0893 123.975 38.1342C123.246 38.2332 122.594 38.3951 122.018 38.62C121.443 38.8449 120.988 39.1598 120.655 39.5646C120.323 39.9605 120.156 40.4732 120.156 41.103C120.156 42.0026 120.484 42.6818 121.141 43.1406C121.798 43.5994 122.635 43.8288 123.651 43.8288ZM138.238 54.7727V26.2727H143.042V29.7003H143.326C143.578 29.1965 143.933 28.6612 144.392 28.0945C144.851 27.5187 145.471 27.0284 146.254 26.6236C147.037 26.2098 148.035 26.0028 149.25 26.0028C150.851 26.0028 152.295 26.4122 153.581 27.2308C154.877 28.0405 155.903 29.2415 156.658 30.8338C157.423 32.4171 157.805 34.3603 157.805 36.6634C157.805 38.9394 157.432 40.8736 156.685 42.4659C155.939 44.0582 154.922 45.2727 153.635 46.1094C152.349 46.946 150.892 47.3643 149.263 47.3643C148.076 47.3643 147.091 47.1664 146.308 46.7706C145.525 46.3748 144.896 45.898 144.419 45.3402C143.951 44.7734 143.587 44.2382 143.326 43.7344H143.123V54.7727H138.238ZM143.029 36.6364C143.029 37.9768 143.218 39.1508 143.596 40.1584C143.983 41.166 144.536 41.9531 145.256 42.5199C145.984 43.0777 146.866 43.3565 147.9 43.3565C148.98 43.3565 149.884 43.0687 150.613 42.4929C151.341 41.9081 151.89 41.112 152.259 40.1044C152.637 39.0878 152.826 37.9318 152.826 36.6364C152.826 35.3499 152.641 34.2074 152.273 33.2088C151.904 32.2102 151.355 31.4276 150.626 30.8608C149.898 30.294 148.989 30.0107 147.9 30.0107C146.857 30.0107 145.971 30.285 145.242 30.8338C144.513 31.3826 143.96 32.1518 143.582 33.1413C143.213 34.1309 143.029 35.2959 143.029 36.6364ZM161.988 47V26.2727H166.725V29.7273H166.941C167.319 28.5308 167.966 27.6087 168.884 26.9609C169.811 26.3042 170.868 25.9759 172.055 25.9759C172.325 25.9759 172.626 25.9893 172.959 26.0163C173.301 26.0343 173.585 26.0658 173.809 26.1108V30.6044C173.603 30.5324 173.274 30.4695 172.824 30.4155C172.384 30.3525 171.956 30.321 171.542 30.321C170.652 30.321 169.851 30.5144 169.14 30.9013C168.439 31.2791 167.885 31.8054 167.481 32.4801C167.076 33.1548 166.873 33.933 166.873 34.8146V47H161.988ZM185.243 47.4048C183.218 47.4048 181.464 46.9595 179.98 46.0689C178.495 45.1783 177.344 43.9323 176.525 42.331C175.716 40.7296 175.311 38.8584 175.311 36.7173C175.311 34.5762 175.716 32.7005 176.525 31.0902C177.344 29.4799 178.495 28.2294 179.98 27.3388C181.464 26.4482 183.218 26.0028 185.243 26.0028C187.267 26.0028 189.021 26.4482 190.505 27.3388C191.99 28.2294 193.137 29.4799 193.946 31.0902C194.765 32.7005 195.174 34.5762 195.174 36.7173C195.174 38.8584 194.765 40.7296 193.946 42.331C193.137 43.9323 191.99 45.1783 190.505 46.0689C189.021 46.9595 187.267 47.4048 185.243 47.4048ZM185.27 43.4915C186.367 43.4915 187.285 43.1901 188.022 42.5874C188.76 41.9756 189.309 41.157 189.669 40.1314C190.038 39.1058 190.222 37.9633 190.222 36.7038C190.222 35.4354 190.038 34.2884 189.669 33.2628C189.309 32.2282 188.76 31.4051 188.022 30.7933C187.285 30.1816 186.367 29.8757 185.27 29.8757C184.145 29.8757 183.209 30.1816 182.463 30.7933C181.725 31.4051 181.172 32.2282 180.803 33.2628C180.443 34.2884 180.263 35.4354 180.263 36.7038C180.263 37.9633 180.443 39.1058 180.803 40.1314C181.172 41.157 181.725 41.9756 182.463 42.5874C183.209 43.1901 184.145 43.4915 185.27 43.4915Z" fill="#1E2329"/>
<rect x="0.5" y="82.5613" width="179" height="219" rx="11.5" fill="#FAFAFA"/>
<rect x="0.5" y="82.5613" width="179" height="219" rx="11.5" stroke="#E7E7E7"/>
<path d="M44.662 124.847C43.678 124.847 42.838 124.667 42.142 124.307C41.446 123.947 40.828 123.425 40.288 122.741L41.44 121.589C41.836 122.141 42.292 122.561 42.808 122.849C43.324 123.125 43.96 123.263 44.716 123.263C45.46 123.263 46.054 123.101 46.498 122.777C46.954 122.453 47.182 122.009 47.182 121.445C47.182 120.977 47.074 120.599 46.858 120.311C46.642 120.023 46.348 119.789 45.976 119.609C45.616 119.417 45.22 119.249 44.788 119.105C44.356 118.949 43.924 118.787 43.492 118.619C43.06 118.439 42.664 118.223 42.304 117.971C41.944 117.707 41.65 117.365 41.422 116.945C41.206 116.525 41.098 115.997 41.098 115.361C41.098 114.653 41.266 114.053 41.602 113.561C41.95 113.057 42.418 112.673 43.006 112.409C43.606 112.133 44.278 111.995 45.022 111.995C45.838 111.995 46.57 112.157 47.218 112.481C47.866 112.793 48.394 113.207 48.802 113.723L47.65 114.875C47.278 114.443 46.876 114.119 46.444 113.903C46.024 113.687 45.538 113.579 44.986 113.579C44.314 113.579 43.78 113.729 43.384 114.029C42.988 114.317 42.79 114.725 42.79 115.253C42.79 115.673 42.898 116.015 43.114 116.279C43.342 116.531 43.636 116.747 43.996 116.927C44.356 117.107 44.752 117.275 45.184 117.431C45.628 117.575 46.066 117.737 46.498 117.917C46.93 118.097 47.326 118.325 47.686 118.601C48.046 118.877 48.334 119.237 48.55 119.681C48.778 120.113 48.892 120.659 48.892 121.319C48.892 122.423 48.508 123.287 47.74 123.911C46.984 124.535 45.958 124.847 44.662 124.847ZM54.6673 124.847C53.8273 124.847 53.0653 124.649 52.3813 124.253C51.7093 123.857 51.1753 123.323 50.7793 122.651C50.3953 121.967 50.2033 121.211 50.2033 120.383C50.2033 119.543 50.3953 118.787 50.7793 118.115C51.1753 117.443 51.7093 116.915 52.3813 116.531C53.0653 116.135 53.8273 115.937 54.6673 115.937C55.3273 115.937 55.9393 116.063 56.5033 116.315C57.0673 116.555 57.5533 116.909 57.9613 117.377L56.8813 118.457C56.6173 118.145 56.2933 117.911 55.9093 117.755C55.5373 117.587 55.1233 117.503 54.6673 117.503C54.1273 117.503 53.6473 117.629 53.2273 117.881C52.8073 118.121 52.4773 118.457 52.2373 118.889C51.9973 119.321 51.8773 119.819 51.8773 120.383C51.8773 120.947 51.9973 121.445 52.2373 121.877C52.4773 122.309 52.8073 122.651 53.2273 122.903C53.6473 123.155 54.1273 123.281 54.6673 123.281C55.1233 123.281 55.5373 123.203 55.9093 123.047C56.2933 122.879 56.6233 122.639 56.8993 122.327L57.9613 123.407C57.5653 123.863 57.0793 124.217 56.5033 124.469C55.9393 124.721 55.3273 124.847 54.6673 124.847ZM63.0458 124.847C62.2658 124.847 61.5578 124.655 60.9218 124.271C60.2858 123.875 59.7818 123.341 59.4098 122.669C59.0498 121.997 58.8698 121.241 58.8698 120.401C58.8698 119.561 59.0498 118.805 59.4098 118.133C59.7818 117.461 60.2798 116.927 60.9038 116.531C61.5398 116.135 62.2538 115.937 63.0458 115.937C63.6938 115.937 64.2698 116.075 64.7738 116.351C65.2898 116.615 65.7038 116.987 66.0158 117.467C66.3278 117.935 66.5018 118.481 66.5378 119.105V121.679C66.5018 122.291 66.3278 122.837 66.0158 123.317C65.7158 123.797 65.3078 124.175 64.7918 124.451C64.2878 124.715 63.7058 124.847 63.0458 124.847ZM63.3158 123.317C64.1198 123.317 64.7678 123.047 65.2598 122.507C65.7518 121.955 65.9978 121.253 65.9978 120.401C65.9978 119.813 65.8838 119.303 65.6558 118.871C65.4398 118.427 65.1278 118.085 64.7198 117.845C64.3118 117.593 63.8378 117.467 63.2978 117.467C62.7578 117.467 62.2778 117.593 61.8578 117.845C61.4498 118.097 61.1258 118.445 60.8858 118.889C60.6578 119.321 60.5438 119.819 60.5438 120.383C60.5438 120.959 60.6578 121.469 60.8858 121.913C61.1258 122.345 61.4558 122.687 61.8758 122.939C62.2958 123.191 62.7758 123.317 63.3158 123.317ZM65.8898 124.667V122.363L66.1958 120.275L65.8898 118.205V116.117H67.5278V124.667H65.8898ZM75.9343 124.667V119.681C75.9343 119.033 75.7303 118.499 75.3223 118.079C74.9143 117.659 74.3863 117.449 73.7383 117.449C73.3063 117.449 72.9223 117.545 72.5863 117.737C72.2503 117.929 71.9863 118.193 71.7943 118.529C71.6023 118.865 71.5063 119.249 71.5063 119.681L70.8403 119.303C70.8403 118.655 70.9843 118.079 71.2723 117.575C71.5603 117.071 71.9623 116.675 72.4783 116.387C72.9943 116.087 73.5763 115.937 74.2243 115.937C74.8723 115.937 75.4423 116.099 75.9343 116.423C76.4383 116.747 76.8343 117.173 77.1223 117.701C77.4103 118.217 77.5543 118.769 77.5543 119.357V124.667H75.9343ZM69.8863 124.667V116.117H71.5063V124.667H69.8863ZM84.7158 124.667V114.839C84.7158 114.203 84.8538 113.651 85.1298 113.183C85.4058 112.703 85.7838 112.325 86.2638 112.049C86.7558 111.773 87.3258 111.635 87.9738 111.635C88.4658 111.635 88.8918 111.719 89.2518 111.887C89.6118 112.055 89.9418 112.301 90.2418 112.625L89.1798 113.669C89.0238 113.501 88.8498 113.375 88.6578 113.291C88.4658 113.195 88.2318 113.147 87.9558 113.147C87.4398 113.147 87.0378 113.297 86.7498 113.597C86.4738 113.897 86.3358 114.311 86.3358 114.839V124.667H84.7158ZM82.6098 117.593V116.117H89.0538V117.593H82.6098ZM94.0951 124.847C93.2551 124.847 92.4991 124.649 91.8271 124.253C91.1551 123.857 90.6211 123.323 90.2251 122.651C89.8291 121.967 89.6311 121.205 89.6311 120.365C89.6311 119.537 89.8291 118.793 90.2251 118.133C90.6211 117.461 91.1551 116.927 91.8271 116.531C92.4991 116.135 93.2551 115.937 94.0951 115.937C94.9231 115.937 95.6731 116.135 96.3451 116.531C97.0291 116.915 97.5691 117.443 97.9651 118.115C98.3611 118.787 98.5591 119.537 98.5591 120.365C98.5591 121.205 98.3611 121.967 97.9651 122.651C97.5691 123.323 97.0291 123.857 96.3451 124.253C95.6731 124.649 94.9231 124.847 94.0951 124.847ZM94.0951 123.281C94.6351 123.281 95.1151 123.155 95.5351 122.903C95.9551 122.651 96.2851 122.309 96.5251 121.877C96.7651 121.433 96.8851 120.929 96.8851 120.365C96.8851 119.813 96.7591 119.321 96.5071 118.889C96.2671 118.457 95.9371 118.121 95.5171 117.881C95.1091 117.629 94.6351 117.503 94.0951 117.503C93.5551 117.503 93.0751 117.629 92.6551 117.881C92.2351 118.121 91.9051 118.457 91.6651 118.889C91.4251 119.321 91.3051 119.813 91.3051 120.365C91.3051 120.929 91.4251 121.433 91.6651 121.877C91.9051 122.309 92.2351 122.651 92.6551 122.903C93.0751 123.155 93.5551 123.281 94.0951 123.281ZM100.384 124.667V116.117H102.004V124.667H100.384ZM102.004 119.789L101.392 119.519C101.392 118.427 101.644 117.557 102.148 116.909C102.652 116.261 103.378 115.937 104.326 115.937C104.758 115.937 105.148 116.015 105.496 116.171C105.844 116.315 106.168 116.561 106.468 116.909L105.406 118.007C105.226 117.815 105.028 117.677 104.812 117.593C104.596 117.509 104.344 117.467 104.056 117.467C103.456 117.467 102.964 117.659 102.58 118.043C102.196 118.427 102.004 119.009 102.004 119.789ZM110.53 124.667L115.642 112.175H116.866L121.96 124.667H120.124L115.93 114.101H116.56L112.33 124.667H110.53ZM112.96 121.841V120.365H119.53V121.841H112.96ZM128.193 124.847C127.545 124.847 126.957 124.715 126.429 124.451C125.913 124.175 125.499 123.797 125.187 123.317C124.875 122.837 124.701 122.291 124.665 121.679V119.105C124.701 118.481 124.875 117.935 125.187 117.467C125.511 116.987 125.931 116.615 126.447 116.351C126.975 116.075 127.557 115.937 128.193 115.937C128.973 115.937 129.675 116.135 130.299 116.531C130.935 116.927 131.433 117.461 131.793 118.133C132.153 118.805 132.333 119.561 132.333 120.401C132.333 121.241 132.153 121.997 131.793 122.669C131.433 123.341 130.935 123.875 130.299 124.271C129.675 124.655 128.973 124.847 128.193 124.847ZM123.693 128.249V116.117H125.313V118.367L125.007 120.437L125.313 122.525V128.249H123.693ZM127.923 123.317C128.463 123.317 128.937 123.191 129.345 122.939C129.753 122.687 130.077 122.345 130.317 121.913C130.557 121.469 130.677 120.959 130.677 120.383C130.677 119.819 130.557 119.315 130.317 118.871C130.077 118.427 129.753 118.085 129.345 117.845C128.937 117.593 128.469 117.467 127.941 117.467C127.401 117.467 126.927 117.593 126.519 117.845C126.111 118.085 125.793 118.427 125.565 118.871C125.337 119.315 125.223 119.825 125.223 120.401C125.223 120.965 125.331 121.469 125.547 121.913C125.775 122.345 126.093 122.687 126.501 122.939C126.921 123.191 127.395 123.317 127.923 123.317ZM138.67 124.847C138.022 124.847 137.434 124.715 136.906 124.451C136.39 124.175 135.976 123.797 135.664 123.317C135.352 122.837 135.178 122.291 135.142 121.679V119.105C135.178 118.481 135.352 117.935 135.664 117.467C135.988 116.987 136.408 116.615 136.924 116.351C137.452 116.075 138.034 115.937 138.67 115.937C139.45 115.937 140.152 116.135 140.776 116.531C141.412 116.927 141.91 117.461 142.27 118.133C142.63 118.805 142.81 119.561 142.81 120.401C142.81 121.241 142.63 121.997 142.27 122.669C141.91 123.341 141.412 123.875 140.776 124.271C140.152 124.655 139.45 124.847 138.67 124.847ZM134.17 128.249V116.117H135.79V118.367L135.484 120.437L135.79 122.525V128.249H134.17ZM138.4 123.317C138.94 123.317 139.414 123.191 139.822 122.939C140.23 122.687 140.554 122.345 140.794 121.913C141.034 121.469 141.154 120.959 141.154 120.383C141.154 119.819 141.034 119.315 140.794 118.871C140.554 118.427 140.23 118.085 139.822 117.845C139.414 117.593 138.946 117.467 138.418 117.467C137.878 117.467 137.404 117.593 136.996 117.845C136.588 118.085 136.27 118.427 136.042 118.871C135.814 119.315 135.7 119.825 135.7 120.401C135.7 120.965 135.808 121.469 136.024 121.913C136.252 122.345 136.57 122.687 136.978 122.939C137.398 123.191 137.872 123.317 138.4 123.317Z" fill="#1E2329"/>
<path d="M32 198.667H36V194.667H34C33.4696 194.667 32.9609 194.877 32.5858 195.252C32.2107 195.627 32 196.136 32 196.667" fill="#1E2329"/>
<path d="M36 198.667H32V202.667H36V198.667Z" fill="#1E2329"/>
<path d="M36 202.667H32V206.667H36V202.667Z" fill="#1E2329"/>
<path d="M36 218.667H34C33.4696 218.667 32.9609 218.877 32.5858 219.252C32.2107 219.627 32 220.136 32 220.667V222.667H34C34.5304 222.667 35.0391 222.456 35.4142 222.081C35.7893 221.706 36 221.197 36 220.667" fill="#1E2329"/>
<path d="M32 230.667H36V226.667H34C33.4696 226.667 32.9609 226.877 32.5858 227.252C32.2107 227.627 32 228.136 32 228.667" fill="#1E2329"/>
<path d="M36 230.667H32V234.667H36V230.667Z" fill="#1E2329"/>
<path d="M40 202.667H36V206.667H38C38.5304 206.667 39.0391 206.456 39.4142 206.081C39.7893 205.706 40 205.197 40 204.667" fill="#1E2329"/>
<path d="M40 214.667H38C37.4696 214.667 36.9609 214.877 36.5858 215.252C36.2107 215.627 36 216.136 36 216.667V218.667H38C38.5304 218.667 39.0391 218.456 39.4142 218.081C39.7893 217.706 40 217.197 40 216.667" fill="#1E2329"/>
<path d="M40 226.667H36V230.667H40V226.667Z" fill="#1E2329"/>
<path d="M40 230.667H36V234.667H38C38.5304 234.667 39.0391 234.456 39.4142 234.081C39.7893 233.706 40 233.197 40 232.667" fill="#1E2329"/>
<path d="M40 194.667H44V190.667H42C41.4696 190.667 40.9609 190.877 40.5858 191.252C40.2107 191.627 40 192.136 40 192.667" fill="#1E2329"/>
<path d="M44 194.667H40V198.667H44V194.667Z" fill="#1E2329"/>
<path d="M44 198.667H40V202.667H44V198.667Z" fill="#1E2329"/>
<path d="M40 210.667H44V206.667H42C41.4696 206.667 40.9609 206.877 40.5858 207.252C40.2107 207.627 40 208.136 40 208.667" fill="#1E2329"/>
<path d="M44 210.667H40V214.667H42C42.5304 214.667 43.0391 214.456 43.4142 214.081C43.7893 213.706 44 213.197 44 212.667" fill="#1E2329"/>
<path d="M40 222.667H44V218.667H42C41.4696 218.667 40.9609 218.877 40.5858 219.252C40.2107 219.627 40 220.136 40 220.667" fill="#1E2329"/>
<path d="M44 222.667H40V226.667H44V222.667Z" fill="#1E2329"/>
<path d="M44 190.667H48V186.667H46C45.4696 186.667 44.9609 186.877 44.5858 187.252C44.2107 187.627 44 188.136 44 188.667" fill="#1E2329"/>
<path d="M48 190.667H44V194.667H48V190.667Z" fill="#1E2329"/>
<path d="M48 194.667H44V198.667H48V194.667Z" fill="#1E2329"/>
<path d="M48 198.667H44V202.667H48V198.667Z" fill="#1E2329"/>
<path d="M44 218.667H48V214.667H46C45.4696 214.667 44.9609 214.877 44.5858 215.252C44.2107 215.627 44 216.136 44 216.667" fill="#1E2329"/>
<path d="M48 218.667H44V222.667H48V218.667Z" fill="#1E2329"/>
<path d="M48 222.667H44V226.667H48V222.667Z" fill="#1E2329"/>
<path d="M48 226.667H44V230.667H48V226.667Z" fill="#1E2329"/>
<path d="M48 230.667H44V234.667H46C46.5304 234.667 47.0391 234.456 47.4142 234.081C47.7893 233.706 48 233.197 48 232.667" fill="#1E2329"/>
<path d="M52 190.667H48V194.667H50C50.5304 194.667 51.0391 194.456 51.4142 194.081C51.7893 193.706 52 193.197 52 192.667" fill="#1E2329"/>
<path d="M52 198.667H48V202.667H50C50.5304 202.667 51.0391 202.456 51.4142 202.081C51.7893 201.706 52 201.197 52 200.667" fill="#1E2329"/>
<path d="M52 214.667H48V218.667H50C50.5304 218.667 51.0391 218.456 51.4142 218.081C51.7893 217.706 52 217.197 52 216.667" fill="#1E2329"/>
<path d="M52 222.667H48V226.667H50C50.5304 226.667 51.0391 226.456 51.4142 226.081C51.7893 225.706 52 225.197 52 224.667" fill="#1E2329"/>
<path d="M48 238.667H52V234.667H50C49.4696 234.667 48.9609 234.877 48.5858 235.252C48.2107 235.627 48 236.136 48 236.667" fill="#1E2329"/>
<path d="M52 190.667H56V186.667H54C53.4696 186.667 52.9609 186.877 52.5858 187.252C52.2107 187.627 52 188.136 52 188.667" fill="#1E2329"/>
<path d="M52 210.667H56V206.667H54C53.4696 206.667 52.9609 206.877 52.5858 207.252C52.2107 207.627 52 208.136 52 208.667" fill="#1E2329"/>
<path d="M56 210.667H52V214.667H56V210.667Z" fill="#1E2329"/>
<path d="M52 222.667H56V218.667H54C53.4696 218.667 52.9609 218.877 52.5858 219.252C52.2107 219.627 52 220.136 52 220.667" fill="#1E2329"/>
<path d="M56 234.667H52V238.667H56V234.667Z" fill="#1E2329"/>
<path d="M60 186.667H56V190.667H60V186.667Z" fill="#1E2329"/>
<path d="M56 198.667H60V194.667H58C57.4696 194.667 56.9609 194.877 56.5858 195.252C56.2107 195.627 56 196.136 56 196.667" fill="#1E2329"/>
<path d="M56 206.667H60V202.667H58C57.4696 202.667 56.9609 202.877 56.5858 203.252C56.2107 203.627 56 204.136 56 204.667" fill="#1E2329"/>
<path d="M60 210.667H56V214.667H58C58.5304 214.667 59.0391 214.456 59.4142 214.081C59.7893 213.706 60 213.197 60 212.667" fill="#1E2329"/>
<path d="M60 218.667H56V222.667H60V218.667Z" fill="#1E2329"/>
<path d="M56 230.667H60V226.667H58C57.4696 226.667 56.9609 226.877 56.5858 227.252C56.2107 227.627 56 228.136 56 228.667" fill="#1E2329"/>
<path d="M60 234.667H56V238.667H60V234.667Z" fill="#1E2329"/>
<path d="M64 186.667H60V190.667H62C62.5304 190.667 63.0391 190.456 63.4142 190.081C63.7893 189.706 64 189.197 64 188.667" fill="#1E2329"/>
<path d="M64 194.667H60V198.667H64V194.667Z" fill="#1E2329"/>
<path d="M64 198.667H60V202.667H64V198.667Z" fill="#1E2329"/>
<path d="M64 202.667H60V206.667H62C62.5304 206.667 63.0391 206.456 63.4142 206.081C63.7893 205.706 64 205.197 64 204.667" fill="#1E2329"/>
<path d="M60 218.667H64V214.667H62C61.4696 214.667 60.9609 214.877 60.5858 215.252C60.2107 215.627 60 216.136 60 216.667" fill="#1E2329"/>
<path d="M64 218.667H60V222.667H62C62.5304 222.667 63.0391 222.456 63.4142 222.081C63.7893 221.706 64 221.197 64 220.667" fill="#1E2329"/>
<path d="M64 226.667H60V230.667H64V226.667Z" fill="#1E2329"/>
<path d="M64 234.667H60V238.667H64V234.667Z" fill="#1E2329"/>
<path d="M64 162.667H68V158.667H66C65.4696 158.667 64.9609 158.877 64.5858 159.252C64.2107 159.627 64 160.136 64 160.667" fill="#1E2329"/>
<path d="M68 162.667H64V166.667H66C66.5304 166.667 67.0391 166.456 67.4142 166.081C67.7893 165.706 68 165.197 68 164.667" fill="#1E2329"/>
<path d="M68 178.667H66C65.4696 178.667 64.9609 178.877 64.5858 179.252C64.2107 179.627 64 180.136 64 180.667V182.667H66C66.5304 182.667 67.0391 182.456 67.4142 182.081C67.7893 181.706 68 181.197 68 180.667" fill="#1E2329"/>
<path d="M64 194.667H68V190.667H66C65.4696 190.667 64.9609 190.877 64.5858 191.252C64.2107 191.627 64 192.136 64 192.667" fill="#1E2329"/>
<path d="M68 194.667H64V198.667H68V194.667Z" fill="#1E2329"/>
<path d="M68 198.667H64V202.667H66C66.5304 202.667 67.0391 202.456 67.4142 202.081C67.7893 201.706 68 201.197 68 200.667" fill="#1E2329"/>
<path d="M64 214.667H68V210.667H66C65.4696 210.667 64.9609 210.877 64.5858 211.252C64.2107 211.627 64 212.136 64 212.667" fill="#1E2329"/>
<path d="M68 214.667H64V218.667H68V214.667Z" fill="#1E2329"/>
<path d="M64 226.667H68V222.667H66C65.4696 222.667 64.9609 222.877 64.5858 223.252C64.2107 223.627 64 224.136 64 224.667" fill="#1E2329"/>
<path d="M68 226.667H64V230.667H68V226.667Z" fill="#1E2329"/>
<path d="M68 230.667H64V234.667H68V230.667Z" fill="#1E2329"/>
<path d="M68 234.667H64V238.667H66C66.5304 238.667 67.0391 238.456 67.4142 238.081C67.7893 237.706 68 237.197 68 236.667" fill="#1E2329"/>
<path d="M64 246.667H68V242.667H66C65.4696 242.667 64.9609 242.877 64.5858 243.252C64.2107 243.627 64 244.136 64 244.667" fill="#1E2329"/>
<path d="M68 246.667H64V250.667H66C66.5304 250.667 67.0391 250.456 67.4142 250.081C67.7893 249.706 68 249.197 68 248.667" fill="#1E2329"/>
<path d="M64 258.667H68V254.667H66C65.4696 254.667 64.9609 254.877 64.5858 255.252C64.2107 255.627 64 256.136 64 256.667" fill="#1E2329"/>
<path d="M72 154.667H70C69.4696 154.667 68.9609 154.877 68.5858 155.252C68.2107 155.627 68 156.136 68 156.667V158.667H70C70.5304 158.667 71.0391 158.456 71.4142 158.081C71.7893 157.706 72 157.197 72 156.667" fill="#1E2329"/>
<path d="M68 174.667H72V170.667H70C69.4696 170.667 68.9609 170.877 68.5858 171.252C68.2107 171.627 68 172.136 68 172.667" fill="#1E2329"/>
<path d="M68 186.667H72V182.667H70C69.4696 182.667 68.9609 182.877 68.5858 183.252C68.2107 183.627 68 184.136 68 184.667" fill="#1E2329"/>
<path d="M72 186.667H68V190.667H72V186.667Z" fill="#1E2329"/>
<path d="M72 190.667H68V194.667H72V190.667Z" fill="#1E2329"/>
<path d="M68 206.667H72V202.667H70C69.4696 202.667 68.9609 202.877 68.5858 203.252C68.2107 203.627 68 204.136 68 204.667" fill="#1E2329"/>
<path d="M72 214.667H68V218.667H72V214.667Z" fill="#1E2329"/>
<path d="M72 226.667H68V230.667H72V226.667Z" fill="#1E2329"/>
<path d="M68 242.667H72V238.667H70C69.4696 238.667 68.9609 238.877 68.5858 239.252C68.2107 239.627 68 240.136 68 240.667" fill="#1E2329"/>
<path d="M72 242.667H68V246.667H70C70.5304 246.667 71.0391 246.456 71.4142 246.081C71.7893 245.706 72 245.197 72 244.667" fill="#1E2329"/>
<path d="M72 254.667H68V258.667H72V254.667Z" fill="#1E2329"/>
<path d="M72 258.667H68V262.667H72V258.667Z" fill="#1E2329"/>
<path d="M72 262.667H68V266.667H72V262.667Z" fill="#1E2329"/>
<path d="M72 266.667H68V270.667H72V266.667Z" fill="#1E2329"/>
<path d="M72 170.667H76V166.667H74C73.4696 166.667 72.9609 166.877 72.5858 167.252C72.2107 167.627 72 168.136 72 168.667" fill="#1E2329"/>
<path d="M76 170.667H72V174.667H74C74.5304 174.667 75.0391 174.456 75.4142 174.081C75.7893 173.706 76 173.197 76 172.667" fill="#1E2329"/>
<path d="M72 182.667H76V178.667H74C73.4696 178.667 72.9609 178.877 72.5858 179.252C72.2107 179.627 72 180.136 72 180.667" fill="#1E2329"/>
<path d="M76 182.667H72V186.667H76V182.667Z" fill="#1E2329"/>
<path d="M76 186.667H72V190.667H76V186.667Z" fill="#1E2329"/>
<path d="M76 190.667H72V194.667H74C74.5304 194.667 75.0391 194.456 75.4142 194.081C75.7893 193.706 76 193.197 76 192.667" fill="#1E2329"/>
<path d="M76 202.667H72V206.667H76V202.667Z" fill="#1E2329"/>
<path d="M76 214.667H72V218.667H76V214.667Z" fill="#1E2329"/>
<path d="M76 218.667H72V222.667H76V218.667Z" fill="#1E2329"/>
<path d="M76 222.667H72V226.667H76V222.667Z" fill="#1E2329"/>
<path d="M76 226.667H72V230.667H76V226.667Z" fill="#1E2329"/>
<path d="M76 230.667H72V234.667H76V230.667Z" fill="#1E2329"/>
<path d="M76 234.667H72V238.667H76V234.667Z" fill="#1E2329"/>
<path d="M76 238.667H72V242.667H74C74.5304 242.667 75.0391 242.456 75.4142 242.081C75.7893 241.706 76 241.197 76 240.667" fill="#1E2329"/>
<path d="M76 246.667H74C73.4696 246.667 72.9609 246.877 72.5858 247.252C72.2107 247.627 72 248.136 72 248.667V250.667H74C74.5304 250.667 75.0391 250.456 75.4142 250.081C75.7893 249.706 76 249.197 76 248.667" fill="#1E2329"/>
<path d="M76 266.667H72V270.667H74C74.5304 270.667 75.0391 270.456 75.4142 270.081C75.7893 269.706 76 269.197 76 268.667" fill="#1E2329"/>
<path d="M80 158.667H78C77.4696 158.667 76.9609 158.877 76.5858 159.252C76.2107 159.627 76 160.136 76 160.667V162.667H78C78.5304 162.667 79.0391 162.456 79.4142 162.081C79.7893 161.706 80 161.197 80 160.667" fill="#1E2329"/>
<path d="M80 182.667H76V186.667H80V182.667Z" fill="#1E2329"/>
<path d="M80 186.667H76V190.667H80V186.667Z" fill="#1E2329"/>
<path d="M76 198.667H80V194.667H78C77.4696 194.667 76.9609 194.877 76.5858 195.252C76.2107 195.627 76 196.136 76 196.667" fill="#1E2329"/>
<path d="M80 202.667H76V206.667H80V202.667Z" fill="#1E2329"/>
<path d="M80 206.667H76V210.667H80V206.667Z" fill="#1E2329"/>
<path d="M80 226.667H76V230.667H80V226.667Z" fill="#1E2329"/>
<path d="M80 230.667H76V234.667H80V230.667Z" fill="#1E2329"/>
<path d="M80 234.667H76V238.667H80V234.667Z" fill="#1E2329"/>
<path d="M76 246.667H80V242.667H78C77.4696 242.667 76.9609 242.877 76.5858 243.252C76.2107 243.627 76 244.136 76 244.667" fill="#1E2329"/>
<path d="M76 254.667H80V250.667H78C77.4696 250.667 76.9609 250.877 76.5858 251.252C76.2107 251.627 76 252.136 76 252.667" fill="#1E2329"/>
<path d="M80 254.667H76V258.667H78C78.5304 258.667 79.0391 258.456 79.4142 258.081C79.7893 257.706 80 257.197 80 256.667" fill="#1E2329"/>
<path d="M80 166.667H84V162.667H82C81.4696 162.667 80.9609 162.877 80.5858 163.252C80.2107 163.627 80 164.136 80 164.667" fill="#1E2329"/>
<path d="M84 166.667H80V170.667H82C82.5304 170.667 83.0391 170.456 83.4142 170.081C83.7893 169.706 84 169.197 84 168.667" fill="#1E2329"/>
<path d="M80 178.667H84V174.667H82C81.4696 174.667 80.9609 174.877 80.5858 175.252C80.2107 175.627 80 176.136 80 176.667" fill="#1E2329"/>
<path d="M84 178.667H80V182.667H84V178.667Z" fill="#1E2329"/>
<path d="M84 182.667H80V186.667H84V182.667Z" fill="#1E2329"/>
<path d="M84 186.667H80V190.667H84V186.667Z" fill="#1E2329"/>
<path d="M84 190.667H80V194.667H84V190.667Z" fill="#1E2329"/>
<path d="M84 194.667H80V198.667H82C82.5304 198.667 83.0391 198.456 83.4142 198.081C83.7893 197.706 84 197.197 84 196.667" fill="#1E2329"/>
<path d="M84 206.667H80V210.667H84V206.667Z" fill="#1E2329"/>
<path d="M84 210.667H80V214.667H84V210.667Z" fill="#1E2329"/>
<path d="M84 234.667H80V238.667H84V234.667Z" fill="#1E2329"/>
<path d="M84 238.667H80V242.667H84V238.667Z" fill="#1E2329"/>
<path d="M84 242.667H80V246.667H84V242.667Z" fill="#1E2329"/>
<path d="M80 262.667H84V258.667H82C81.4696 258.667 80.9609 258.877 80.5858 259.252C80.2107 259.627 80 260.136 80 260.667" fill="#1E2329"/>
<path d="M84 262.667H80V266.667H82C82.5304 266.667 83.0391 266.456 83.4142 266.081C83.7893 265.706 84 265.197 84 264.667" fill="#1E2329"/>
<path d="M88 154.667H86C85.4696 154.667 84.9609 154.877 84.5858 155.252C84.2107 155.627 84 156.136 84 156.667V158.667H86C86.5304 158.667 87.0391 158.456 87.4142 158.081C87.7893 157.706 88 157.197 88 156.667" fill="#1E2329"/>
<path d="M88 162.667H84V166.667H86C86.5304 166.667 87.0391 166.456 87.4142 166.081C87.7893 165.706 88 165.197 88 164.667" fill="#1E2329"/>
<path d="M84 174.667H88V170.667H86C85.4696 170.667 84.9609 170.877 84.5858 171.252C84.2107 171.627 84 172.136 84 172.667" fill="#1E2329"/>
<path d="M88 174.667H84V178.667H86C86.5304 178.667 87.0391 178.456 87.4142 178.081C87.7893 177.706 88 177.197 88 176.667" fill="#1E2329"/>
<path d="M88 190.667H84V194.667H88V190.667Z" fill="#1E2329"/>
<path d="M84 206.667H88V202.667H86C85.4696 202.667 84.9609 202.877 84.5858 203.252C84.2107 203.627 84 204.136 84 204.667" fill="#1E2329"/>
<path d="M88 210.667H84V214.667H88V210.667Z" fill="#1E2329"/>
<path d="M84 222.667H88V218.667H86C85.4696 218.667 84.9609 218.877 84.5858 219.252C84.2107 219.627 84 220.136 84 220.667" fill="#1E2329"/>
<path d="M88 222.667H84V226.667H88V222.667Z" fill="#1E2329"/>
<path d="M88 226.667H84V230.667H88V226.667Z" fill="#1E2329"/>
<path d="M88 230.667H84V234.667H88V230.667Z" fill="#1E2329"/>
<path d="M88 234.667H84V238.667H86C86.5304 238.667 87.0391 238.456 87.4142 238.081C87.7893 237.706 88 237.197 88 236.667" fill="#1E2329"/>
<path d="M88 242.667H84V246.667H88V242.667Z" fill="#1E2329"/>
<path d="M84 258.667H88V254.667H86C85.4696 254.667 84.9609 254.877 84.5858 255.252C84.2107 255.627 84 256.136 84 256.667" fill="#1E2329"/>
<path d="M84 270.667H88V266.667H86C85.4696 266.667 84.9609 266.877 84.5858 267.252C84.2107 267.627 84 268.136 84 268.667" fill="#1E2329"/>
<path d="M92 170.667H88V174.667H90C90.5304 174.667 91.0391 174.456 91.4142 174.081C91.7893 173.706 92 173.197 92 172.667" fill="#1E2329"/>
<path d="M92 178.667H90C89.4696 178.667 88.9609 178.877 88.5858 179.252C88.2107 179.627 88 180.136 88 180.667V182.667H90C90.5304 182.667 91.0391 182.456 91.4142 182.081C91.7893 181.706 92 181.197 92 180.667" fill="#1E2329"/>
<path d="M92 190.667H88V194.667H90C90.5304 194.667 91.0391 194.456 91.4142 194.081C91.7893 193.706 92 193.197 92 192.667" fill="#1E2329"/>
<path d="M92 202.667H88V206.667H92V202.667Z" fill="#1E2329"/>
<path d="M92 206.667H88V210.667H92V206.667Z" fill="#1E2329"/>
<path d="M92 210.667H88V214.667H92V210.667Z" fill="#1E2329"/>
<path d="M92 214.667H88V218.667H92V214.667Z" fill="#1E2329"/>
<path d="M92 218.667H88V222.667H90C90.5304 222.667 91.0391 222.456 91.4142 222.081C91.7893 221.706 92 221.197 92 220.667" fill="#1E2329"/>
<path d="M92 230.667H88V234.667H90C90.5304 234.667 91.0391 234.456 91.4142 234.081C91.7893 233.706 92 233.197 92 232.667" fill="#1E2329"/>
<path d="M92 242.667H88V246.667H92V242.667Z" fill="#1E2329"/>
<path d="M92 254.667H88V258.667H92V254.667Z" fill="#1E2329"/>
<path d="M92 258.667H88V262.667H92V258.667Z" fill="#1E2329"/>
<path d="M92 262.667H88V266.667H92V262.667Z" fill="#1E2329"/>
<path d="M92 266.667H88V270.667H90C90.5304 270.667 91.0391 270.456 91.4142 270.081C91.7893 269.706 92 269.197 92 268.667" fill="#1E2329"/>
<path d="M92 170.667H96V166.667H94C93.4696 166.667 92.9609 166.877 92.5858 167.252C92.2107 167.627 92 168.136 92 168.667" fill="#1E2329"/>
<path d="M96 174.667H94C93.4696 174.667 92.9609 174.877 92.5858 175.252C92.2107 175.627 92 176.136 92 176.667V178.667H94C94.5304 178.667 95.0391 178.456 95.4142 178.081C95.7893 177.706 96 177.197 96 176.667" fill="#1E2329"/>
<path d="M92 186.667H96V182.667H94C93.4696 182.667 92.9609 182.877 92.5858 183.252C92.2107 183.627 92 184.136 92 184.667" fill="#1E2329"/>
<path d="M96 186.667H92V190.667H94C94.5304 190.667 95.0391 190.456 95.4142 190.081C95.7893 189.706 96 189.197 96 188.667" fill="#1E2329"/>
<path d="M96 194.667H94C93.4696 194.667 92.9609 194.877 92.5858 195.252C92.2107 195.627 92 196.136 92 196.667V198.667H94C94.5304 198.667 95.0391 198.456 95.4142 198.081C95.7893 197.706 96 197.197 96 196.667" fill="#1E2329"/>
<path d="M96 206.667H92V210.667H96V206.667Z" fill="#1E2329"/>
<path d="M96 210.667H92V214.667H96V210.667Z" fill="#1E2329"/>
<path d="M96 214.667H92V218.667H94C94.5304 218.667 95.0391 218.456 95.4142 218.081C95.7893 217.706 96 217.197 96 216.667" fill="#1E2329"/>
<path d="M92 226.667H96V222.667H94C93.4696 222.667 92.9609 222.877 92.5858 223.252C92.2107 223.627 92 224.136 92 224.667" fill="#1E2329"/>
<path d="M92 238.667H96V234.667H94C93.4696 234.667 92.9609 234.877 92.5858 235.252C92.2107 235.627 92 236.136 92 236.667" fill="#1E2329"/>
<path d="M96 238.667H92V242.667H96V238.667Z" fill="#1E2329"/>
<path d="M96 242.667H92V246.667H96V242.667Z" fill="#1E2329"/>
<path d="M96 254.667H92V258.667H94C94.5304 258.667 95.0391 258.456 95.4142 258.081C95.7893 257.706 96 257.197 96 256.667" fill="#1E2329"/>
<path d="M96 262.667H92V266.667H94C94.5304 266.667 95.0391 266.456 95.4142 266.081C95.7893 265.706 96 265.197 96 264.667" fill="#1E2329"/>
<path d="M96 166.667H100V162.667H98C97.4696 162.667 96.9609 162.877 96.5858 163.252C96.2107 163.627 96 164.136 96 164.667" fill="#1E2329"/>
<path d="M100 166.667H96V170.667H100V166.667Z" fill="#1E2329"/>
<path d="M100 170.667H96V174.667H100V170.667Z" fill="#1E2329"/>
<path d="M100 178.667H98C97.4696 178.667 96.9609 178.877 96.5858 179.252C96.2107 179.627 96 180.136 96 180.667V182.667H98C98.5304 182.667 99.0391 182.456 99.4142 182.081C99.7893 181.706 100 181.197 100 180.667" fill="#1E2329"/>
<path d="M100 190.667H98C97.4696 190.667 96.9609 190.877 96.5858 191.252C96.2107 191.627 96 192.136 96 192.667V194.667H98C98.5304 194.667 99.0391 194.456 99.4142 194.081C99.7893 193.706 100 193.197 100 192.667" fill="#1E2329"/>
<path d="M96 206.667H100V202.667H98C97.4696 202.667 96.9609 202.877 96.5858 203.252C96.2107 203.627 96 204.136 96 204.667" fill="#1E2329"/>
<path d="M100 210.667H96V214.667H100V210.667Z" fill="#1E2329"/>
<path d="M100 222.667H96V226.667H98C98.5304 226.667 99.0391 226.456 99.4142 226.081C99.7893 225.706 100 225.197 100 224.667" fill="#1E2329"/>
<path d="M100 234.667H96V238.667H100V234.667Z" fill="#1E2329"/>
<path d="M100 242.667H96V246.667H100V242.667Z" fill="#1E2329"/>
<path d="M104 162.667H100V166.667H104V162.667Z" fill="#1E2329"/>
<path d="M104 166.667H100V170.667H104V166.667Z" fill="#1E2329"/>
<path d="M104 170.667H100V174.667H104V170.667Z" fill="#1E2329"/>
<path d="M104 174.667H100V178.667H104V174.667Z" fill="#1E2329"/>
<path d="M100 186.667H104V182.667H102C101.47 182.667 100.961 182.877 100.586 183.252C100.211 183.627 100 184.136 100 184.667" fill="#1E2329"/>
<path d="M100 198.667H104V194.667H102C101.47 194.667 100.961 194.877 100.586 195.252C100.211 195.627 100 196.136 100 196.667" fill="#1E2329"/>
<path d="M104 198.667H100V202.667H104V198.667Z" fill="#1E2329"/>
<path d="M104 202.667H100V206.667H104V202.667Z" fill="#1E2329"/>
<path d="M104 210.667H100V214.667H104V210.667Z" fill="#1E2329"/>
<path d="M104 234.667H100V238.667H104V234.667Z" fill="#1E2329"/>
<path d="M104 242.667H100V246.667H104V242.667Z" fill="#1E2329"/>
<path d="M104 246.667H100V250.667H102C102.53 250.667 103.039 250.456 103.414 250.081C103.789 249.706 104 249.197 104 248.667" fill="#1E2329"/>
<path d="M100 262.667H104V258.667H102C101.47 258.667 100.961 258.877 100.586 259.252C100.211 259.627 100 260.136 100 260.667" fill="#1E2329"/>
<path d="M100 270.667H104V266.667H102C101.47 266.667 100.961 266.877 100.586 267.252C100.211 267.627 100 268.136 100 268.667" fill="#1E2329"/>
<path d="M104 158.667H108V154.667H106C105.47 154.667 104.961 154.877 104.586 155.252C104.211 155.627 104 156.136 104 156.667" fill="#1E2329"/>
<path d="M108 158.667H104V162.667H108V158.667Z" fill="#1E2329"/>
<path d="M108 162.667H104V166.667H108V162.667Z" fill="#1E2329"/>
<path d="M108 166.667H104V170.667H108V166.667Z" fill="#1E2329"/>
<path d="M108 170.667H104V174.667H108V170.667Z" fill="#1E2329"/>
<path d="M108 174.667H104V178.667H108V174.667Z" fill="#1E2329"/>
<path d="M108 178.667H104V182.667H108V178.667Z" fill="#1E2329"/>
<path d="M108 182.667H104V186.667H108V182.667Z" fill="#1E2329"/>
<path d="M108 186.667H104V190.667H108V186.667Z" fill="#1E2329"/>
<path d="M108 198.667H104V202.667H108V198.667Z" fill="#1E2329"/>
<path d="M108 202.667H104V206.667H108V202.667Z" fill="#1E2329"/>
<path d="M108 210.667H104V214.667H108V210.667Z" fill="#1E2329"/>
<path d="M108 214.667H104V218.667H106C106.53 218.667 107.039 218.456 107.414 218.081C107.789 217.706 108 217.197 108 216.667" fill="#1E2329"/>
<path d="M104 230.667H108V226.667H106C105.47 226.667 104.961 226.877 104.586 227.252C104.211 227.627 104 228.136 104 228.667" fill="#1E2329"/>
<path d="M108 230.667H104V234.667H108V230.667Z" fill="#1E2329"/>
<path d="M108 234.667H104V238.667H108V234.667Z" fill="#1E2329"/>
<path d="M104 258.667H108V254.667H106C105.47 254.667 104.961 254.877 104.586 255.252C104.211 255.627 104 256.136 104 256.667" fill="#1E2329"/>
<path d="M108 258.667H104V262.667H106C106.53 262.667 107.039 262.456 107.414 262.081C107.789 261.706 108 261.197 108 260.667" fill="#1E2329"/>
<path d="M108 266.667H104V270.667H108V266.667Z" fill="#1E2329"/>
<path d="M112 166.667H108V170.667H112V166.667Z" fill="#1E2329"/>
<path d="M112 174.667H108V178.667H110C110.53 178.667 111.039 178.456 111.414 178.081C111.789 177.706 112 177.197 112 176.667" fill="#1E2329"/>
<path d="M112 182.667H108V186.667H112V182.667Z" fill="#1E2329"/>
<path d="M112 186.667H108V190.667H112V186.667Z" fill="#1E2329"/>
<path d="M112 190.667H108V194.667H112V190.667Z" fill="#1E2329"/>
<path d="M112 194.667H108V198.667H110C110.53 198.667 111.039 198.456 111.414 198.081C111.789 197.706 112 197.197 112 196.667" fill="#1E2329"/>
<path d="M112 202.667H108V206.667H112V202.667Z" fill="#1E2329"/>
<path d="M112 206.667H108V210.667H112V206.667Z" fill="#1E2329"/>
<path d="M112 230.667H108V234.667H112V230.667Z" fill="#1E2329"/>
<path d="M112 234.667H108V238.667H112V234.667Z" fill="#1E2329"/>
<path d="M112 238.667H108V242.667H112V238.667Z" fill="#1E2329"/>
<path d="M112 242.667H108V246.667H112V242.667Z" fill="#1E2329"/>
<path d="M112 246.667H108V250.667H112V246.667Z" fill="#1E2329"/>
<path d="M112 254.667H108V258.667H112V254.667Z" fill="#1E2329"/>
<path d="M112 266.667H108V270.667H110C110.53 270.667 111.039 270.456 111.414 270.081C111.789 269.706 112 269.197 112 268.667" fill="#1E2329"/>
<path d="M112 158.667H116V154.667H114C113.47 154.667 112.961 154.877 112.586 155.252C112.211 155.627 112 156.136 112 156.667" fill="#1E2329"/>
<path d="M116 158.667H112V162.667H116V158.667Z" fill="#1E2329"/>
<path d="M116 162.667H112V166.667H116V162.667Z" fill="#1E2329"/>
<path d="M116 166.667H112V170.667H114C114.53 170.667 115.039 170.456 115.414 170.081C115.789 169.706 116 169.197 116 168.667" fill="#1E2329"/>
<path d="M116 178.667H114C113.47 178.667 112.961 178.877 112.586 179.252C112.211 179.627 112 180.136 112 180.667V182.667H114C114.53 182.667 115.039 182.456 115.414 182.081C115.789 181.706 116 181.197 116 180.667" fill="#1E2329"/>
<path d="M116 190.667H112V194.667H116V190.667Z" fill="#1E2329"/>
<path d="M112 202.667H116V198.667H114C113.47 198.667 112.961 198.877 112.586 199.252C112.211 199.627 112 200.136 112 200.667" fill="#1E2329"/>
<path d="M116 202.667H112V206.667H116V202.667Z" fill="#1E2329"/>
<path d="M116 206.667H112V210.667H114C114.53 210.667 115.039 210.456 115.414 210.081C115.789 209.706 116 209.197 116 208.667" fill="#1E2329"/>
<path d="M112 218.667H116V214.667H114C113.47 214.667 112.961 214.877 112.586 215.252C112.211 215.627 112 216.136 112 216.667" fill="#1E2329"/>
<path d="M116 218.667H112V222.667H116V218.667Z" fill="#1E2329"/>
<path d="M112 230.667H116V226.667H114C113.47 226.667 112.961 226.877 112.586 227.252C112.211 227.627 112 228.136 112 228.667" fill="#1E2329"/>
<path d="M116 230.667H112V234.667H116V230.667Z" fill="#1E2329"/>
<path d="M116 234.667H112V238.667H116V234.667Z" fill="#1E2329"/>
<path d="M116 238.667H112V242.667H116V238.667Z" fill="#1E2329"/>
<path d="M116 242.667H112V246.667H116V242.667Z" fill="#1E2329"/>
<path d="M116 246.667H112V250.667H116V246.667Z" fill="#1E2329"/>
<path d="M116 250.667H112V254.667H116V250.667Z" fill="#1E2329"/>
<path d="M116 254.667H112V258.667H116V254.667Z" fill="#1E2329"/>
<path d="M116 262.667H114C113.47 262.667 112.961 262.877 112.586 263.252C112.211 263.627 112 264.136 112 264.667V266.667H114C114.53 266.667 115.039 266.456 115.414 266.081C115.789 265.706 116 265.197 116 264.667" fill="#1E2329"/>
<path d="M116 190.667H120V186.667H118C117.47 186.667 116.961 186.877 116.586 187.252C116.211 187.627 116 188.136 116 188.667" fill="#1E2329"/>
<path d="M120 190.667H116V194.667H120V190.667Z" fill="#1E2329"/>
<path d="M120 194.667H116V198.667H118C118.53 198.667 119.039 198.456 119.414 198.081C119.789 197.706 120 197.197 120 196.667" fill="#1E2329"/>
<path d="M120 214.667H116V218.667H120V214.667Z" fill="#1E2329"/>
<path d="M120 218.667H116V222.667H118C118.53 222.667 119.039 222.456 119.414 222.081C119.789 221.706 120 221.197 120 220.667" fill="#1E2329"/>
<path d="M120 234.667H116V238.667H120V234.667Z" fill="#1E2329"/>
<path d="M120 250.667H116V254.667H120V250.667Z" fill="#1E2329"/>
<path d="M120 254.667H116V258.667H120V254.667Z" fill="#1E2329"/>
<path d="M116 270.667H120V266.667H118C117.47 266.667 116.961 266.877 116.586 267.252C116.211 267.627 116 268.136 116 268.667" fill="#1E2329"/>
<path d="M124 190.667H120V194.667H124V190.667Z" fill="#1E2329"/>
<path d="M124 198.667H122C121.47 198.667 120.961 198.877 120.586 199.252C120.211 199.627 120 200.136 120 200.667V202.667H122C122.53 202.667 123.039 202.456 123.414 202.081C123.789 201.706 124 201.197 124 200.667" fill="#1E2329"/>
<path d="M124 214.667H120V218.667H124V214.667Z" fill="#1E2329"/>
<path d="M120 226.667H124V222.667H122C121.47 222.667 120.961 222.877 120.586 223.252C120.211 223.627 120 224.136 120 224.667" fill="#1E2329"/>
<path d="M124 226.667H120V230.667H124V226.667Z" fill="#1E2329"/>
<path d="M124 234.667H120V238.667H124V234.667Z" fill="#1E2329"/>
<path d="M124 242.667H122C121.47 242.667 120.961 242.877 120.586 243.252C120.211 243.627 120 244.136 120 244.667V246.667H122C122.53 246.667 123.039 246.456 123.414 246.081C123.789 245.706 124 245.197 124 244.667" fill="#1E2329"/>
<path d="M124 250.667H120V254.667H124V250.667Z" fill="#1E2329"/>
<path d="M124 254.667H120V258.667H124V254.667Z" fill="#1E2329"/>
<path d="M124 258.667H120V262.667H122C122.53 262.667 123.039 262.456 123.414 262.081C123.789 261.706 124 261.197 124 260.667" fill="#1E2329"/>
<path d="M124 266.667H120V270.667H124V266.667Z" fill="#1E2329"/>
<path d="M128 190.667H124V194.667H128V190.667Z" fill="#1E2329"/>
<path d="M124 206.667H128V202.667H126C125.47 202.667 124.961 202.877 124.586 203.252C124.211 203.627 124 204.136 124 204.667" fill="#1E2329"/>
<path d="M128 206.667H124V210.667H128V206.667Z" fill="#1E2329"/>
<path d="M128 214.667H124V218.667H128V214.667Z" fill="#1E2329"/>
<path d="M128 226.667H124V230.667H128V226.667Z" fill="#1E2329"/>
<path d="M128 230.667H124V234.667H128V230.667Z" fill="#1E2329"/>
<path d="M128 234.667H124V238.667H128V234.667Z" fill="#1E2329"/>
<path d="M128 250.667H124V254.667H128V250.667Z" fill="#1E2329"/>
<path d="M128 254.667H124V258.667H126C126.53 258.667 127.039 258.456 127.414 258.081C127.789 257.706 128 257.197 128 256.667" fill="#1E2329"/>
<path d="M124 266.667H128V262.667H126C125.47 262.667 124.961 262.877 124.586 263.252C124.211 263.627 124 264.136 124 264.667" fill="#1E2329"/>
<path d="M128 266.667H124V270.667H126C126.53 270.667 127.039 270.456 127.414 270.081C127.789 269.706 128 269.197 128 268.667" fill="#1E2329"/>
<path d="M132 190.667H128V194.667H130C130.53 194.667 131.039 194.456 131.414 194.081C131.789 193.706 132 193.197 132 192.667" fill="#1E2329"/>
<path d="M132 202.667H128V206.667H132V202.667Z" fill="#1E2329"/>
<path d="M132 206.667H128V210.667H132V206.667Z" fill="#1E2329"/>
<path d="M132 210.667H128V214.667H132V210.667Z" fill="#1E2329"/>
<path d="M132 214.667H128V218.667H132V214.667Z" fill="#1E2329"/>
<path d="M132 218.667H128V222.667H132V218.667Z" fill="#1E2329"/>
<path d="M132 222.667H128V226.667H132V222.667Z" fill="#1E2329"/>
<path d="M132 226.667H128V230.667H132V226.667Z" fill="#1E2329"/>
<path d="M132 230.667H128V234.667H132V230.667Z" fill="#1E2329"/>
<path d="M132 234.667H128V238.667H132V234.667Z" fill="#1E2329"/>
<path d="M132 238.667H128V242.667H132V238.667Z" fill="#1E2329"/>
<path d="M132 242.667H128V246.667H132V242.667Z" fill="#1E2329"/>
<path d="M132 246.667H128V250.667H132V246.667Z" fill="#1E2329"/>
<path d="M132 250.667H128V254.667H132V250.667Z" fill="#1E2329"/>
<path d="M136 202.667H132V206.667H136V202.667Z" fill="#1E2329"/>
<path d="M136 218.667H132V222.667H136V218.667Z" fill="#1E2329"/>
<path d="M136 222.667H132V226.667H136V222.667Z" fill="#1E2329"/>
<path d="M136 226.667H132V230.667H136V226.667Z" fill="#1E2329"/>
<path d="M136 230.667H132V234.667H136V230.667Z" fill="#1E2329"/>
<path d="M136 234.667H132V238.667H134C134.53 238.667 135.039 238.456 135.414 238.081C135.789 237.706 136 237.197 136 236.667" fill="#1E2329"/>
<path d="M136 246.667H132V250.667H136V246.667Z" fill="#1E2329"/>
<path d="M136 250.667H132V254.667H136V250.667Z" fill="#1E2329"/>
<path d="M136 254.667H132V258.667H136V254.667Z" fill="#1E2329"/>
<path d="M136 258.667H132V262.667H136V258.667Z" fill="#1E2329"/>
<path d="M136 262.667H132V266.667H136V262.667Z" fill="#1E2329"/>
<path d="M136 190.667H140V186.667H138C137.47 186.667 136.961 186.877 136.586 187.252C136.211 187.627 136 188.136 136 188.667" fill="#1E2329"/>
<path d="M136 198.667H140V194.667H138C137.47 194.667 136.961 194.877 136.586 195.252C136.211 195.627 136 196.136 136 196.667" fill="#1E2329"/>
<path d="M140 202.667H136V206.667H138C138.53 206.667 139.039 206.456 139.414 206.081C139.789 205.706 140 205.197 140 204.667" fill="#1E2329"/>
<path d="M140 218.667H136V222.667H140V218.667Z" fill="#1E2329"/>
<path d="M136 242.667H140V238.667H138C137.47 238.667 136.961 238.877 136.586 239.252C136.211 239.627 136 240.136 136 240.667" fill="#1E2329"/>
<path d="M140 250.667H136V254.667H138C138.53 254.667 139.039 254.456 139.414 254.081C139.789 253.706 140 253.197 140 252.667" fill="#1E2329"/>
<path d="M140 262.667H136V266.667H140V262.667Z" fill="#1E2329"/>
<path d="M140 266.667H136V270.667H138C138.53 270.667 139.039 270.456 139.414 270.081C139.789 269.706 140 269.197 140 268.667" fill="#1E2329"/>
<path d="M144 186.667H140V190.667H142C142.53 190.667 143.039 190.456 143.414 190.081C143.789 189.706 144 189.197 144 188.667" fill="#1E2329"/>
<path d="M144 194.667H140V198.667H142C142.53 198.667 143.039 198.456 143.414 198.081C143.789 197.706 144 197.197 144 196.667" fill="#1E2329"/>
<path d="M140 214.667H144V210.667H142C141.47 210.667 140.961 210.877 140.586 211.252C140.211 211.627 140 212.136 140 212.667" fill="#1E2329"/>
<path d="M144 214.667H140V218.667H144V214.667Z" fill="#1E2329"/>
<path d="M144 218.667H140V222.667H144V218.667Z" fill="#1E2329"/>
<path d="M140 234.667H144V230.667H142C141.47 230.667 140.961 230.877 140.586 231.252C140.211 231.627 140 232.136 140 232.667" fill="#1E2329"/>
<path d="M144 234.667H140V238.667H144V234.667Z" fill="#1E2329"/>
<path d="M144 238.667H140V242.667H144V238.667Z" fill="#1E2329"/>
<path d="M144 242.667H140V246.667H142C142.53 246.667 143.039 246.456 143.414 246.081C143.789 245.706 144 245.197 144 244.667" fill="#1E2329"/>
<path d="M140 258.667H144V254.667H142C141.47 254.667 140.961 254.877 140.586 255.252C140.211 255.627 140 256.136 140 256.667" fill="#1E2329"/>
<path d="M148 206.667H146C145.47 206.667 144.961 206.877 144.586 207.252C144.211 207.627 144 208.136 144 208.667V210.667H146C146.53 210.667 147.039 210.456 147.414 210.081C147.789 209.706 148 209.197 148 208.667" fill="#1E2329"/>
<path d="M148 218.667H144V222.667H146C146.53 222.667 147.039 222.456 147.414 222.081C147.789 221.706 148 221.197 148 220.667" fill="#1E2329"/>
<path d="M148 234.667H144V238.667H148V234.667Z" fill="#1E2329"/>
<path d="M148 238.667H144V242.667H146C146.53 242.667 147.039 242.456 147.414 242.081C147.789 241.706 148 241.197 148 240.667" fill="#1E2329"/>
<path d="M144 250.667H148V246.667H146C145.47 246.667 144.961 246.877 144.586 247.252C144.211 247.627 144 248.136 144 248.667" fill="#1E2329"/>
<path d="M148 250.667H144V254.667H148V250.667Z" fill="#1E2329"/>
<path d="M148 254.667H144V258.667H148V254.667Z" fill="#1E2329"/>
<path d="M148 258.667H144V262.667H146C146.53 262.667 147.039 262.456 147.414 262.081C147.789 261.706 148 261.197 148 260.667" fill="#1E2329"/>
<path d="M148 266.667H146C145.47 266.667 144.961 266.877 144.586 267.252C144.211 267.627 144 268.136 144 268.667V270.667H146C146.53 270.667 147.039 270.456 147.414 270.081C147.789 269.706 148 269.197 148 268.667" fill="#1E2329"/>
<path d="M32 164.667V172.667C32 175.319 33.0536 177.862 34.9289 179.738C36.8043 181.613 39.3478 182.667 42 182.667H50C52.6522 182.667 55.1957 181.613 57.0711 179.738C58.9464 177.862 60 175.319 60 172.667V164.667C60 162.014 58.9464 159.471 57.0711 157.595C55.1957 155.72 52.6522 154.667 50 154.667H42C39.3478 154.667 36.8043 155.72 34.9289 157.595C33.0536 159.471 32 162.014 32 164.667ZM42 158.667H50C51.5913 158.667 53.1174 159.299 54.2426 160.424C55.3679 161.549 56 163.075 56 164.667V172.667C56 174.258 55.3679 175.784 54.2426 176.909C53.1174 178.034 51.5913 178.667 50 178.667H42C40.4087 178.667 38.8826 178.034 37.7574 176.909C36.6321 175.784 36 174.258 36 172.667V164.667C36 163.075 36.6321 161.549 37.7574 160.424C38.8826 159.299 40.4087 158.667 42 158.667Z" fill="#1E2329"/>
<path d="M46 174.667C49.3137 174.667 52 171.98 52 168.667C52 165.353 49.3137 162.667 46 162.667C42.6863 162.667 40 165.353 40 168.667C40 171.98 42.6863 174.667 46 174.667Z" fill="#1E2329"/>
<path d="M138 154.667H130C127.348 154.667 124.804 155.72 122.929 157.595C121.054 159.471 120 162.014 120 164.667V172.667C120 175.319 121.054 177.862 122.929 179.738C124.804 181.613 127.348 182.667 130 182.667H138C140.652 182.667 143.196 181.613 145.071 179.738C146.946 177.862 148 175.319 148 172.667V164.667C148 162.014 146.946 159.471 145.071 157.595C143.196 155.72 140.652 154.667 138 154.667ZM144 164.667V172.667C144 174.258 143.368 175.784 142.243 176.909C141.117 178.034 139.591 178.667 138 178.667H130C128.409 178.667 126.883 178.034 125.757 176.909C124.632 175.784 124 174.258 124 172.667V164.667C124 163.075 124.632 161.549 125.757 160.424C126.883 159.299 128.409 158.667 130 158.667H138C139.591 158.667 141.117 159.299 142.243 160.424C143.368 161.549 144 163.075 144 164.667Z" fill="#1E2329"/>
<path d="M128 168.667C128 171.98 130.686 174.667 134 174.667C137.314 174.667 140 171.98 140 168.667C140 165.353 137.314 162.667 134 162.667C130.686 162.667 128 165.353 128 168.667Z" fill="#1E2329"/>
<path d="M42 270.667H50C52.6522 270.667 55.1957 269.613 57.0711 267.738C58.9464 265.862 60 263.319 60 260.667V252.667C60 250.014 58.9464 247.471 57.0711 245.595C55.1957 243.72 52.6522 242.667 50 242.667H42C39.3478 242.667 36.8043 243.72 34.9289 245.595C33.0536 247.471 32 250.014 32 252.667V260.667C32 263.319 33.0536 265.862 34.9289 267.738C36.8043 269.613 39.3478 270.667 42 270.667ZM36 260.667V252.667C36 251.075 36.6321 249.549 37.7574 248.424C38.8826 247.299 40.4087 246.667 42 246.667H50C51.5913 246.667 53.1174 247.299 54.2426 248.424C55.3679 249.549 56 251.075 56 252.667V260.667C56 262.258 55.3679 263.784 54.2426 264.909C53.1174 266.034 51.5913 266.667 50 266.667H42C40.4087 266.667 38.8826 266.034 37.7574 264.909C36.6321 263.784 36 262.258 36 260.667Z" fill="#1E2329"/>
<path d="M52 256.667C52 253.353 49.3137 250.667 46 250.667C42.6863 250.667 40 253.353 40 256.667C40 259.98 42.6863 262.667 46 262.667C49.3137 262.667 52 259.98 52 256.667Z" fill="#1E2329"/>
<path d="M26.6893 343.601H23.5018C23.4109 343.079 23.2433 342.615 22.9989 342.212C22.7546 341.803 22.4506 341.456 22.087 341.172C21.7234 340.888 21.3086 340.675 20.8427 340.533C20.3825 340.385 19.8853 340.312 19.3512 340.312C18.4023 340.312 17.5614 340.55 16.8285 341.027C16.0955 341.499 15.5217 342.192 15.1069 343.107C14.6921 344.016 14.4847 345.127 14.4847 346.439C14.4847 347.775 14.6921 348.9 15.1069 349.814C15.5273 350.723 16.1012 351.411 16.8285 351.877C17.5614 352.337 18.3995 352.567 19.3427 352.567C19.8654 352.567 20.354 352.499 20.8086 352.363C21.2688 352.221 21.6808 352.013 22.0444 351.74C22.4137 351.468 22.7234 351.133 22.9734 350.735C23.229 350.337 23.4052 349.883 23.5018 349.371L26.6893 349.388C26.57 350.218 26.3114 350.996 25.9137 351.723C25.5217 352.451 25.0075 353.093 24.3711 353.65C23.7347 354.201 22.9904 354.633 22.1381 354.945C21.2859 355.252 20.3398 355.405 19.3001 355.405C17.766 355.405 16.3967 355.05 15.1921 354.34C13.9876 353.63 13.0387 352.604 12.3455 351.263C11.6523 349.922 11.3058 348.314 11.3058 346.439C11.3058 344.559 11.6552 342.951 12.354 341.615C13.0529 340.275 14.0046 339.249 15.2092 338.539C16.4137 337.829 17.7773 337.473 19.3001 337.473C20.2717 337.473 21.1751 337.61 22.0103 337.883C22.8455 338.155 23.5898 338.556 24.2433 339.084C24.8967 339.607 25.4336 340.249 25.854 341.01C26.2802 341.766 26.5586 342.63 26.6893 343.601ZM35.1587 355.422C33.8803 355.422 32.7724 355.141 31.8349 354.579C30.8974 354.016 30.1701 353.229 29.6531 352.218C29.1417 351.206 28.886 350.025 28.886 348.672C28.886 347.32 29.1417 346.135 29.6531 345.118C30.1701 344.101 30.8974 343.312 31.8349 342.749C32.7724 342.187 33.8803 341.905 35.1587 341.905C36.4371 341.905 37.5451 342.187 38.4826 342.749C39.4201 343.312 40.1445 344.101 40.6559 345.118C41.1729 346.135 41.4315 347.32 41.4315 348.672C41.4315 350.025 41.1729 351.206 40.6559 352.218C40.1445 353.229 39.4201 354.016 38.4826 354.579C37.5451 355.141 36.4371 355.422 35.1587 355.422ZM35.1758 352.951C35.869 352.951 36.4485 352.76 36.9144 352.38C37.3803 351.993 37.7269 351.476 37.9542 350.829C38.1871 350.181 38.3036 349.459 38.3036 348.664C38.3036 347.863 38.1871 347.138 37.9542 346.49C37.7269 345.837 37.3803 345.317 36.9144 344.931C36.4485 344.544 35.869 344.351 35.1758 344.351C34.4656 344.351 33.8746 344.544 33.4031 344.931C32.9371 345.317 32.5877 345.837 32.3548 346.49C32.1275 347.138 32.0138 347.863 32.0138 348.664C32.0138 349.459 32.1275 350.181 32.3548 350.829C32.5877 351.476 32.9371 351.993 33.4031 352.38C33.8746 352.76 34.4656 352.951 35.1758 352.951ZM44.0501 355.167V342.076H46.9989V344.3H47.1523C47.4251 343.55 47.8768 342.965 48.5075 342.544C49.1381 342.118 49.891 341.905 50.766 341.905C51.6523 341.905 52.3995 342.121 53.0075 342.553C53.6211 342.979 54.0529 343.562 54.3029 344.3H54.4393C54.729 343.573 55.2177 342.993 55.9052 342.562C56.5984 342.124 57.4194 341.905 58.3683 341.905C59.5728 341.905 60.5558 342.286 61.3171 343.047C62.0785 343.809 62.4592 344.919 62.4592 346.38V355.167H59.3654V346.857C59.3654 346.044 59.1495 345.451 58.7177 345.076C58.2859 344.695 57.7575 344.505 57.1325 344.505C56.3881 344.505 55.8058 344.738 55.3853 345.204C54.9705 345.664 54.7631 346.263 54.7631 347.002V355.167H51.7376V346.729C51.7376 346.053 51.533 345.513 51.1239 345.11C50.7205 344.706 50.1921 344.505 49.5387 344.505C49.0955 344.505 48.6921 344.618 48.3285 344.846C47.9648 345.067 47.6751 345.383 47.4592 345.792C47.2433 346.195 47.1353 346.667 47.1353 347.206V355.167H44.0501ZM65.5891 355.167V342.076H68.538V344.3H68.6914C68.9641 343.55 69.4158 342.965 70.0465 342.544C70.6772 342.118 71.43 341.905 72.305 341.905C73.1914 341.905 73.9386 342.121 74.5465 342.553C75.1602 342.979 75.592 343.562 75.842 344.3H75.9783C76.2681 343.573 76.7567 342.993 77.4442 342.562C78.1374 342.124 78.9585 341.905 79.9073 341.905C81.1119 341.905 82.0948 342.286 82.8562 343.047C83.6175 343.809 83.9982 344.919 83.9982 346.38V355.167H80.9045V346.857C80.9045 346.044 80.6886 345.451 80.2567 345.076C79.8249 344.695 79.2965 344.505 78.6715 344.505C77.9272 344.505 77.3448 344.738 76.9244 345.204C76.5096 345.664 76.3022 346.263 76.3022 347.002V355.167H73.2766V346.729C73.2766 346.053 73.0721 345.513 72.663 345.11C72.2596 344.706 71.7312 344.505 71.0778 344.505C70.6346 344.505 70.2312 344.618 69.8675 344.846C69.5039 345.067 69.2141 345.383 68.9982 345.792C68.7823 346.195 68.6744 346.667 68.6744 347.206V355.167H65.5891ZM95.4719 349.661V342.076H98.5572V355.167H95.5657V352.84H95.4293C95.1339 353.573 94.6481 354.172 93.9719 354.638C93.3015 355.104 92.4748 355.337 91.4918 355.337C90.6339 355.337 89.8754 355.147 89.2163 354.766C88.5629 354.38 88.0515 353.82 87.6822 353.087C87.3129 352.348 87.1282 351.456 87.1282 350.411V342.076H90.2134V349.934C90.2134 350.763 90.4407 351.422 90.8952 351.911C91.3498 352.4 91.9464 352.644 92.685 352.644C93.1396 352.644 93.5799 352.533 94.006 352.312C94.4322 352.09 94.7816 351.76 95.0543 351.323C95.3327 350.88 95.4719 350.326 95.4719 349.661ZM104.815 347.496V355.167H101.73V342.076H104.679V344.3H104.832C105.133 343.567 105.613 342.985 106.272 342.553C106.937 342.121 107.758 341.905 108.735 341.905C109.639 341.905 110.426 342.098 111.096 342.485C111.772 342.871 112.295 343.431 112.664 344.164C113.039 344.897 113.224 345.786 113.218 346.831V355.167H110.133V347.309C110.133 346.434 109.906 345.749 109.451 345.255C109.002 344.76 108.38 344.513 107.585 344.513C107.045 344.513 106.565 344.633 106.145 344.871C105.73 345.104 105.403 345.442 105.164 345.885C104.931 346.329 104.815 346.865 104.815 347.496ZM116.355 355.167V342.076H119.44V355.167H116.355ZM117.906 340.218C117.417 340.218 116.997 340.056 116.645 339.732C116.292 339.402 116.116 339.008 116.116 338.547C116.116 338.081 116.292 337.687 116.645 337.363C116.997 337.033 117.417 336.868 117.906 336.868C118.4 336.868 118.821 337.033 119.167 337.363C119.52 337.687 119.696 338.081 119.696 338.547C119.696 339.008 119.52 339.402 119.167 339.732C118.821 340.056 118.4 340.218 117.906 340.218ZM129.15 342.076V344.462H121.624V342.076H129.15ZM123.482 338.939H126.567V351.229C126.567 351.644 126.63 351.962 126.755 352.184C126.885 352.4 127.056 352.547 127.266 352.627C127.476 352.706 127.709 352.746 127.965 352.746C128.158 352.746 128.334 352.732 128.493 352.704C128.658 352.675 128.783 352.65 128.868 352.627L129.388 355.039C129.223 355.096 128.988 355.158 128.681 355.226C128.38 355.294 128.01 355.334 127.573 355.346C126.8 355.368 126.104 355.252 125.485 354.996C124.865 354.735 124.374 354.331 124.01 353.786C123.652 353.24 123.476 352.559 123.482 351.74V338.939ZM133.647 360.076C133.227 360.076 132.838 360.042 132.48 359.973C132.127 359.911 131.846 359.837 131.636 359.752L132.352 357.348C132.801 357.479 133.201 357.542 133.554 357.536C133.906 357.53 134.216 357.419 134.483 357.204C134.755 356.993 134.985 356.641 135.173 356.147L135.437 355.439L130.69 342.076H133.963L136.98 351.962H137.116L140.142 342.076H143.423L138.181 356.752C137.937 357.445 137.613 358.039 137.21 358.533C136.806 359.033 136.312 359.414 135.727 359.675C135.147 359.942 134.454 360.076 133.647 360.076Z" fill="#1E2329"/>
<path d="M19.0387 393.597C24.0138 393.597 28.0462 397.658 28.0462 402.667C28.0462 407.675 24.0131 411.736 19.0387 411.736C14.0644 411.736 10.0312 407.675 10.0312 402.667C10.0312 397.658 14.0637 393.597 19.0387 393.597ZM33.4231 394.129C35.9106 394.129 37.9269 397.951 37.9269 402.667C37.935 403.804 37.4519 411.205 33.4231 411.205C30.9362 411.205 28.9194 407.381 28.9194 402.667C28.9194 397.952 30.9356 394.129 33.4231 394.129ZM40.385 395.018C41.2594 395.018 41.9688 398.442 41.9688 402.667C41.9688 406.89 41.26 410.315 40.385 410.315C39.51 410.315 38.8013 406.891 38.8013 402.667C38.8013 398.443 39.51 395.018 40.385 395.018Z" fill="#707A8A"/>
<g clip-path="url(#clip0_50_61)">
<path fill-rule="evenodd" clip-rule="evenodd" d="M88 389.667C80.825 389.667 75 395.492 75 402.667C75 409.842 80.825 415.667 88 415.667C95.175 415.667 101 409.842 101 402.667C101 395.492 95.175 389.667 88 389.667ZM81.489 407.363C82.2345 407.232 82.9901 407.166 83.747 407.167C86.52 407.167 89.0915 408.037 91.2025 409.518C91.2562 409.556 91.3169 409.583 91.3811 409.597C91.4453 409.612 91.5117 409.614 91.5765 409.602C91.6413 409.591 91.7032 409.567 91.7588 409.532C91.8143 409.497 91.8623 409.451 91.9001 409.397C91.9379 409.343 91.9647 409.282 91.979 409.218C91.9932 409.154 91.9947 409.087 91.9833 409.023C91.9718 408.958 91.9477 408.896 91.9123 408.841C91.8769 408.785 91.8309 408.737 91.777 408.7C89.4256 407.047 86.6208 406.163 83.747 406.167C82.918 406.167 82.106 406.239 81.316 406.378C81.1854 406.401 81.0692 406.474 80.9931 406.583C80.9169 406.692 80.8871 406.826 80.91 406.957C80.9329 407.087 81.0068 407.203 81.1154 407.28C81.224 407.356 81.3584 407.386 81.489 407.363V407.363ZM80.7125 403.458C80.689 403.324 80.6931 403.187 80.7243 403.055C80.7556 402.923 80.8135 402.798 80.8944 402.689C80.9753 402.58 81.0776 402.488 81.1951 402.42C81.3125 402.352 81.4426 402.308 81.5775 402.292C82.2977 402.209 83.022 402.167 83.747 402.167C87.32 402.167 90.6575 403.182 93.4865 404.939C93.5998 405.011 93.6974 405.106 93.7732 405.217C93.8491 405.328 93.9017 405.453 93.9279 405.585C93.9541 405.717 93.9534 405.852 93.9257 405.984C93.8981 406.115 93.8441 406.24 93.767 406.35C93.769 406.355 93.767 406.357 93.7655 406.359C93.6178 406.57 93.3944 406.716 93.1419 406.766C92.8894 406.816 92.6273 406.767 92.41 406.629C89.8093 405.015 86.8081 404.162 83.747 404.167C83.102 404.166 82.4576 404.204 81.817 404.279C81.5635 404.309 81.308 404.241 81.103 404.089C80.898 403.937 80.7589 403.712 80.7145 403.461C80.713 403.46 80.713 403.459 80.7125 403.458ZM79.802 398.793C79.7724 398.626 79.7772 398.455 79.816 398.289C79.8548 398.124 79.9268 397.969 80.0276 397.832C80.1285 397.696 80.2561 397.581 80.4026 397.496C80.5492 397.41 80.7116 397.355 80.88 397.335C81.8316 397.223 82.7889 397.167 83.747 397.167C88.4005 397.167 92.7465 398.494 96.426 400.79C96.5676 400.88 96.6894 400.998 96.7842 401.137C96.8789 401.276 96.9445 401.432 96.9772 401.597C97.0098 401.762 97.0087 401.931 96.9739 402.096C96.9392 402.26 96.8715 402.416 96.775 402.553C96.777 402.558 96.775 402.561 96.773 402.564C96.5882 402.828 96.3086 403.01 95.9924 403.073C95.6763 403.136 95.3482 403.074 95.0765 402.901C91.6782 400.781 87.7518 399.66 83.7465 399.667C82.8805 399.667 82.026 399.718 81.186 399.818C80.8685 399.857 80.5482 399.773 80.2911 399.582C80.034 399.392 79.8596 399.111 79.804 398.796C79.8025 398.795 79.802 398.794 79.802 398.793Z" fill="#707A8A"/>
</g>
<g clip-path="url(#clip1_50_61)">
<path fill-rule="evenodd" clip-rule="evenodd" d="M150 390.167C143.102 390.167 137.5 395.768 137.5 402.667C137.5 409.567 143.101 415.167 150 415.167C156.9 415.167 162.5 409.567 162.5 402.667C162.5 395.768 156.9 390.167 150 390.167ZM155.434 396.402C155.608 396.343 155.795 396.334 155.974 396.375C156.153 396.416 156.317 396.505 156.448 396.633C156.58 396.761 156.674 396.923 156.719 397.1C156.765 397.278 156.761 397.465 156.707 397.641C155.727 400.859 153.728 407.43 152.806 410.458C152.756 410.623 152.664 410.773 152.539 410.892C152.414 411.011 152.26 411.095 152.092 411.137C151.925 411.179 151.749 411.177 151.583 411.131C151.416 411.085 151.265 410.996 151.142 410.874C149.842 409.574 147.826 407.558 147.017 406.749C146.924 406.655 146.871 406.528 146.871 406.396C146.871 406.263 146.924 406.136 147.017 406.042L152.122 400.938C152.212 400.848 152.264 400.728 152.268 400.6C152.272 400.473 152.228 400.35 152.144 400.254C152.06 400.159 151.943 400.099 151.816 400.086C151.69 400.074 151.563 400.111 151.462 400.189L145.543 404.755C145.459 404.821 145.355 404.857 145.247 404.859C145.14 404.861 145.035 404.829 144.948 404.766L141.898 402.587C141.747 402.48 141.63 402.333 141.558 402.163C141.486 401.994 141.462 401.807 141.49 401.625C141.517 401.442 141.595 401.271 141.713 401.13C141.832 400.989 141.987 400.883 142.163 400.825L155.434 396.402Z" fill="#707A8A"/>
</g>
<path d="M212.256 387.809C209.36 387.808 206.53 388.667 204.122 390.275C201.714 391.883 199.837 394.169 198.728 396.844C197.62 399.519 197.329 402.463 197.894 405.303C198.458 408.143 199.852 410.752 201.9 412.8C203.947 414.848 206.556 416.242 209.396 416.808C212.235 417.373 215.179 417.083 217.855 415.975C220.53 414.867 222.816 412.991 224.425 410.583C226.034 408.175 226.893 405.345 226.893 402.449C226.889 398.568 225.345 394.847 222.601 392.103C219.857 389.358 216.137 387.814 212.256 387.809ZM216.317 396.494C216.317 396.552 216.294 396.609 216.252 396.65C216.211 396.691 216.155 396.715 216.096 396.715H214.336C214.129 396.715 213.93 396.797 213.783 396.943C213.636 397.09 213.553 397.288 213.552 397.495V399.339H216.058C216.088 399.339 216.118 399.346 216.146 399.358C216.174 399.371 216.198 399.389 216.219 399.411C216.239 399.434 216.255 399.46 216.264 399.489C216.274 399.518 216.278 399.548 216.275 399.579L216.058 402.177C216.053 402.232 216.027 402.284 215.987 402.321C215.946 402.358 215.892 402.379 215.837 402.379H213.552V411.003C213.552 411.061 213.529 411.117 213.487 411.159C213.446 411.2 213.39 411.223 213.331 411.223H210.179C210.121 411.223 210.064 411.2 210.023 411.159C209.982 411.117 209.958 411.061 209.958 411.003V402.379H208.384C208.325 402.379 208.269 402.355 208.228 402.314C208.186 402.273 208.163 402.216 208.163 402.158V399.559C208.163 399.501 208.186 399.445 208.228 399.403C208.269 399.362 208.325 399.339 208.384 399.339H209.958V396.836C209.958 395.998 210.291 395.194 210.884 394.601C211.477 394.008 212.281 393.675 213.12 393.675H216.096C216.155 393.675 216.211 393.698 216.252 393.739C216.294 393.781 216.317 393.837 216.317 393.895V396.494Z" fill="#707A8A"/>
<g clip-path="url(#clip2_50_61)">
<path d="M26.004 448.667H25.996C17.174 448.667 10 455.843 10 464.667C9.99454 468.037 11.0613 471.321 13.046 474.045L11.052 479.989L17.202 478.023C19.8108 479.753 22.8734 480.673 26.004 480.667C34.826 480.667 42 473.489 42 464.667C42 455.845 34.826 448.667 26.004 448.667ZM35.314 471.261C34.928 472.351 33.396 473.255 32.174 473.519C31.338 473.697 30.246 473.839 26.57 472.315C21.868 470.367 18.84 465.589 18.604 465.279C18.378 464.969 16.704 462.749 16.704 460.453C16.704 458.157 17.87 457.039 18.34 456.559C18.726 456.165 19.364 455.985 19.976 455.985C20.174 455.985 20.352 455.995 20.512 456.003C20.982 456.023 21.218 456.051 21.528 456.793C21.914 457.723 22.854 460.019 22.966 460.255C23.08 460.491 23.194 460.811 23.034 461.121C22.884 461.441 22.752 461.583 22.516 461.855C22.28 462.127 22.056 462.335 21.82 462.627C21.604 462.881 21.36 463.153 21.632 463.623C21.904 464.083 22.844 465.617 24.228 466.849C26.014 468.439 27.462 468.947 27.98 469.163C28.366 469.323 28.826 469.285 29.108 468.985C29.466 468.599 29.908 467.959 30.358 467.329C30.678 466.877 31.082 466.821 31.506 466.981C31.938 467.131 34.224 468.261 34.694 468.495C35.164 468.731 35.474 468.843 35.588 469.041C35.7 469.239 35.7 470.169 35.314 471.261Z" fill="#707A8A"/>
</g>
<g clip-path="url(#clip3_50_61)">
<path d="M94 448.667H82C79.3478 448.667 76.8043 449.72 74.9289 451.596C73.0536 453.471 72 456.014 72 458.667V470.667C72 473.319 73.0536 475.862 74.9289 477.738C76.8043 479.613 79.3478 480.667 82 480.667H94C96.6522 480.667 99.1957 479.613 101.071 477.738C102.946 475.862 104 473.319 104 470.667V458.667C104 456.014 102.946 453.471 101.071 451.596C99.1957 449.72 96.6522 448.667 94 448.667ZM101 470.667C101 474.527 97.86 477.667 94 477.667H82C78.14 477.667 75 474.527 75 470.667V458.667C75 454.807 78.14 451.667 82 451.667H94C97.86 451.667 101 454.807 101 458.667V470.667Z" fill="#707A8A"/>
<path d="M88 456.667C85.8783 456.667 83.8434 457.509 82.3431 459.01C80.8429 460.51 80 462.545 80 464.667C80 466.788 80.8429 468.823 82.3431 470.323C83.8434 471.824 85.8783 472.667 88 472.667C90.1217 472.667 92.1566 471.824 93.6569 470.323C95.1571 468.823 96 466.788 96 464.667C96 462.545 95.1571 460.51 93.6569 459.01C92.1566 457.509 90.1217 456.667 88 456.667ZM88 469.667C86.6744 469.665 85.4036 469.138 84.4662 468.2C83.5289 467.263 83.0016 465.992 83 464.667C83 461.909 85.244 459.667 88 459.667C90.756 459.667 93 461.909 93 464.667C93 467.423 90.756 469.667 88 469.667Z" fill="#707A8A"/>
<path d="M96.6 457.133C97.1887 457.133 97.666 456.655 97.666 456.067C97.666 455.478 97.1887 455.001 96.6 455.001C96.0113 455.001 95.534 455.478 95.534 456.067C95.534 456.655 96.0113 457.133 96.6 457.133Z" fill="#707A8A"/>
</g>
<path fill-rule="evenodd" clip-rule="evenodd" d="M164.64 456.787C163.772 455.243 162.83 454.959 160.912 454.851C158.996 454.721 154.178 454.667 150.004 454.667C145.822 454.667 141.002 454.721 139.088 454.849C137.174 454.959 136.23 455.241 135.354 456.787C134.46 458.329 134 460.985 134 465.661V465.677C134 470.333 134.46 473.009 135.354 474.535C136.23 476.079 137.172 476.359 139.086 476.489C141.002 476.601 145.822 476.667 150.004 476.667C154.178 476.667 158.996 476.601 160.914 476.491C162.832 476.361 163.774 476.081 164.642 474.537C165.544 473.011 166 470.335 166 465.679V465.663C166 460.985 165.544 458.329 164.64 456.787ZM146 471.667V459.667L156 465.667L146 471.667Z" fill="#707A8A"/>
<g clip-path="url(#clip4_50_61)">
<path d="M208 467.667L207 467.665V467.667H208ZM217 467.667H218L217 467.665V467.667Z" fill="#707A8A"/>
<path d="M228.14 464.667C228.14 462.461 226.346 460.667 224.14 460.667C223.258 460.667 222.42 460.955 221.736 461.477C219.504 459.927 216.58 459.003 213.47 458.769L215.148 454.833L220.03 455.973C220.186 457.483 221.45 458.667 223 458.667C224.654 458.667 226 457.321 226 455.667C226 454.013 224.654 452.667 223 452.667C221.952 452.667 221.03 453.209 220.494 454.027L214.788 452.693C214.558 452.638 214.317 452.667 214.107 452.774C213.896 452.88 213.73 453.058 213.638 453.275L211.318 458.715C207.96 458.831 204.76 459.777 202.344 461.425C201.746 460.994 201.042 460.737 200.307 460.681C199.573 460.625 198.838 460.773 198.182 461.108C197.526 461.443 196.976 461.953 196.591 462.581C196.206 463.208 196.001 463.93 196 464.667C195.998 465.371 196.185 466.064 196.541 466.672C196.896 467.281 197.407 467.784 198.022 468.129C198.007 468.308 197.999 468.487 198 468.667C198 474.181 204.28 478.667 212 478.667C219.718 478.667 226 474.181 226 468.667C226 468.511 225.994 468.357 225.984 468.203C226.635 467.87 227.181 467.363 227.561 466.739C227.942 466.115 228.142 465.398 228.14 464.667ZM223 454.667C223.266 454.667 223.52 454.773 223.708 454.962C223.895 455.15 224.001 455.405 224 455.671C223.999 455.936 223.893 456.191 223.705 456.379C223.517 456.566 223.262 456.671 222.996 456.671C222.864 456.67 222.734 456.644 222.613 456.594C222.491 456.543 222.381 456.469 222.288 456.376C222.195 456.283 222.122 456.172 222.072 456.05C222.021 455.929 221.996 455.798 221.996 455.667C221.996 455.535 222.022 455.405 222.073 455.283C222.124 455.162 222.198 455.052 222.291 454.959C222.384 454.866 222.495 454.792 222.616 454.742C222.738 454.692 222.868 454.666 223 454.667ZM205 467.667C205 466.565 205.898 465.667 207 465.667C208.102 465.667 209 466.565 209 467.667C208.977 468.182 208.756 468.668 208.384 469.024C208.011 469.38 207.515 469.579 207 469.579C206.485 469.579 205.989 469.38 205.616 469.024C205.244 468.668 205.023 468.182 205 467.667ZM216.618 474.301C215.275 475.274 213.659 475.797 212 475.797C210.341 475.797 208.725 475.274 207.382 474.301C207.272 474.225 207.179 474.128 207.107 474.016C207.035 473.904 206.987 473.778 206.964 473.647C206.942 473.516 206.946 473.381 206.976 473.251C207.006 473.122 207.062 472.999 207.14 472.891C207.218 472.783 207.317 472.692 207.43 472.623C207.544 472.554 207.671 472.508 207.802 472.488C207.934 472.469 208.069 472.476 208.198 472.509C208.327 472.542 208.448 472.6 208.554 472.681C209.556 473.408 210.762 473.8 212 473.8C213.238 473.8 214.444 473.408 215.446 472.681C215.552 472.6 215.673 472.542 215.802 472.509C215.931 472.476 216.066 472.469 216.198 472.488C216.329 472.508 216.456 472.554 216.57 472.623C216.683 472.692 216.782 472.783 216.86 472.891C216.938 472.999 216.994 473.122 217.024 473.251C217.054 473.381 217.058 473.516 217.036 473.647C217.013 473.778 216.965 473.904 216.893 474.016C216.821 474.128 216.728 474.225 216.618 474.301ZM217 469.667C216.47 469.667 215.961 469.456 215.586 469.081C215.211 468.706 215 468.197 215 467.667C215 467.136 215.211 466.627 215.586 466.252C215.961 465.877 216.47 465.667 217 465.667C217.53 465.667 218.039 465.877 218.414 466.252C218.789 466.627 219 467.136 219 467.667C219 468.197 218.789 468.706 218.414 469.081C218.039 469.456 217.53 469.667 217 469.667Z" fill="#707A8A"/>
</g>
<path d="M16 526C7.16375 526 0 533.164 0 542C0 550.836 7.16375 558 16 558C24.8363 558 32 550.836 32 542C32 533.164 24.8363 526 16 526ZM24.4375 546.942C24.4364 547.366 24.2675 547.772 23.9678 548.072C23.6681 548.372 23.262 548.541 22.8381 548.542H9.16188C8.73805 548.541 8.33191 548.372 8.03222 548.072C7.73253 547.772 7.56366 547.366 7.5625 546.942V538.582L15.9963 542.79L24.4375 538.671V546.942ZM24.4375 537.094L16.0037 541.21L7.5625 537C7.57862 536.587 7.75391 536.195 8.05173 535.908C8.34956 535.621 8.74687 535.46 9.16063 535.459H22.8381C23.2619 535.46 23.6678 535.629 23.9676 535.928C24.2672 536.228 24.4362 536.634 24.4375 537.058V537.094Z" fill="#707A8A"/>
<path d="M43.3593 549V540.45H44.9793V549H43.3593ZM44.1693 538.74C43.8693 538.74 43.6233 538.644 43.4313 538.452C43.2393 538.248 43.1433 537.996 43.1433 537.696C43.1433 537.408 43.2393 537.168 43.4313 536.976C43.6233 536.772 43.8693 536.67 44.1693 536.67C44.4693 536.67 44.7153 536.772 44.9073 536.976C45.0993 537.168 45.1953 537.408 45.1953 537.696C45.1953 537.996 45.0993 538.248 44.9073 538.452C44.7153 538.644 44.4693 538.74 44.1693 538.74ZM53.4147 549V544.014C53.4147 543.366 53.2107 542.832 52.8027 542.412C52.3947 541.992 51.8667 541.782 51.2187 541.782C50.7867 541.782 50.4027 541.878 50.0667 542.07C49.7307 542.262 49.4667 542.526 49.2747 542.862C49.0827 543.198 48.9867 543.582 48.9867 544.014L48.3207 543.636C48.3207 542.988 48.4647 542.412 48.7527 541.908C49.0407 541.404 49.4427 541.008 49.9587 540.72C50.4747 540.42 51.0567 540.27 51.7047 540.27C52.3527 540.27 52.9227 540.432 53.4147 540.756C53.9187 541.08 54.3147 541.506 54.6027 542.034C54.8907 542.55 55.0347 543.102 55.0347 543.69V549H53.4147ZM47.3667 549V540.45H48.9867V549H47.3667ZM58.3466 549V539.172C58.3466 538.536 58.4846 537.984 58.7606 537.516C59.0366 537.036 59.4146 536.658 59.8946 536.382C60.3866 536.106 60.9566 535.968 61.6046 535.968C62.0966 535.968 62.5226 536.052 62.8826 536.22C63.2426 536.388 63.5726 536.634 63.8726 536.958L62.8106 538.002C62.6546 537.834 62.4806 537.708 62.2886 537.624C62.0966 537.528 61.8626 537.48 61.5866 537.48C61.0706 537.48 60.6686 537.63 60.3806 537.93C60.1046 538.23 59.9666 538.644 59.9666 539.172V549H58.3466ZM56.2406 541.926V540.45H62.6846V541.926H56.2406ZM67.7258 549.18C66.8858 549.18 66.1298 548.982 65.4578 548.586C64.7858 548.19 64.2518 547.656 63.8558 546.984C63.4598 546.3 63.2618 545.538 63.2618 544.698C63.2618 543.87 63.4598 543.126 63.8558 542.466C64.2518 541.794 64.7858 541.26 65.4578 540.864C66.1298 540.468 66.8858 540.27 67.7258 540.27C68.5538 540.27 69.3038 540.468 69.9758 540.864C70.6598 541.248 71.1998 541.776 71.5958 542.448C71.9918 543.12 72.1898 543.87 72.1898 544.698C72.1898 545.538 71.9918 546.3 71.5958 546.984C71.1998 547.656 70.6598 548.19 69.9758 548.586C69.3038 548.982 68.5538 549.18 67.7258 549.18ZM67.7258 547.614C68.2658 547.614 68.7458 547.488 69.1658 547.236C69.5858 546.984 69.9158 546.642 70.1558 546.21C70.3958 545.766 70.5158 545.262 70.5158 544.698C70.5158 544.146 70.3898 543.654 70.1378 543.222C69.8978 542.79 69.5678 542.454 69.1478 542.214C68.7398 541.962 68.2658 541.836 67.7258 541.836C67.1858 541.836 66.7058 541.962 66.2858 542.214C65.8658 542.454 65.5358 542.79 65.2958 543.222C65.0558 543.654 64.9358 544.146 64.9358 544.698C64.9358 545.262 65.0558 545.766 65.2958 546.21C65.5358 546.642 65.8658 546.984 66.2858 547.236C66.7058 547.488 67.1858 547.614 67.7258 547.614ZM79.6311 550.62C78.8151 550.62 78.0471 550.47 77.3271 550.17C76.6191 549.882 76.0011 549.474 75.4731 548.946C74.9451 548.418 74.5311 547.8 74.2311 547.092C73.9311 546.372 73.7811 545.592 73.7811 544.752C73.7811 543.912 73.9311 543.138 74.2311 542.43C74.5431 541.71 74.9691 541.086 75.5091 540.558C76.0491 540.018 76.6791 539.598 77.3991 539.298C78.1311 538.998 78.9111 538.848 79.7391 538.848C80.8431 538.848 81.8151 539.1 82.6551 539.604C83.5071 540.108 84.1731 540.798 84.6531 541.674C85.1451 542.55 85.3911 543.558 85.3911 544.698C85.3911 545.214 85.3371 545.682 85.2291 546.102C85.1331 546.51 84.9711 546.894 84.7431 547.254L83.3571 547.182C83.5251 546.942 83.6571 546.702 83.7531 546.462C83.8611 546.21 83.9391 545.934 83.9871 545.634C84.0351 545.334 84.0591 544.992 84.0591 544.608C84.0591 543.66 83.8851 542.856 83.5371 542.196C83.2011 541.524 82.7091 541.014 82.0611 540.666C81.4251 540.306 80.6571 540.126 79.7571 540.126C78.8451 540.126 78.0411 540.318 77.3451 540.702C76.6611 541.086 76.1271 541.626 75.7431 542.322C75.3711 543.006 75.1851 543.822 75.1851 544.77C75.1851 545.706 75.3651 546.516 75.7251 547.2C76.0971 547.884 76.6191 548.418 77.2911 548.802C77.9631 549.174 78.7311 549.36 79.5951 549.36C80.2311 549.36 80.8011 549.27 81.3051 549.09C81.8091 548.922 82.2531 548.664 82.6371 548.316L83.5371 549.234C83.0091 549.69 82.4151 550.032 81.7551 550.26C81.0951 550.5 80.3871 550.62 79.6311 550.62ZM79.3071 547.38C78.8391 547.38 78.4131 547.266 78.0291 547.038C77.6571 546.798 77.3511 546.48 77.1111 546.084C76.8831 545.688 76.7691 545.244 76.7691 544.752C76.7691 544.26 76.8831 543.816 77.1111 543.42C77.3511 543.012 77.6571 542.694 78.0291 542.466C78.4131 542.226 78.8391 542.106 79.3071 542.106C79.8831 542.106 80.3511 542.25 80.7111 542.538C81.0831 542.814 81.2691 543.222 81.2691 543.762V545.724C81.2691 546.252 81.0891 546.66 80.7291 546.948C80.3691 547.236 79.8951 547.38 79.3071 547.38ZM79.3791 546.246C79.8111 546.246 80.1531 546.108 80.4051 545.832C80.6691 545.544 80.8011 545.178 80.8011 544.734C80.8011 544.278 80.6691 543.912 80.4051 543.636C80.1531 543.36 79.8111 543.222 79.3791 543.222C78.9831 543.222 78.6471 543.366 78.3711 543.654C78.1071 543.93 77.9751 544.29 77.9751 544.734C77.9751 545.178 78.1071 545.544 78.3711 545.832C78.6351 546.108 78.9711 546.246 79.3791 546.246ZM81.3951 547.254V546.192H84.7431V547.254H81.3951ZM80.8911 547.254V545.922L81.0711 544.662L80.8911 543.456V542.214H82.0611V547.254H80.8911ZM90.9711 549.18C90.2631 549.18 89.6271 549.024 89.0631 548.712C88.5111 548.388 88.0791 547.944 87.7671 547.38C87.4551 546.816 87.2991 546.162 87.2991 545.418V540.45H88.9191V545.346C88.9191 545.814 88.9971 546.222 89.1531 546.57C89.3211 546.906 89.5611 547.164 89.8731 547.344C90.1851 547.524 90.5511 547.614 90.9711 547.614C91.6071 547.614 92.1051 547.416 92.4651 547.02C92.8251 546.612 93.0051 546.054 93.0051 545.346V540.45H94.6251V545.418C94.6251 546.162 94.4691 546.816 94.1571 547.38C93.8451 547.944 93.4131 548.388 92.8611 548.712C92.3211 549.024 91.6911 549.18 90.9711 549.18ZM96.7964 549V536.148H98.4164V549H96.7964ZM102.101 549V536.868H103.721V549H102.101ZM99.9946 541.926V540.45H105.827V541.926H99.9946ZM107.414 549V540.45H109.034V549H107.414ZM109.034 544.122L108.422 543.852C108.422 542.76 108.674 541.89 109.178 541.242C109.682 540.594 110.408 540.27 111.356 540.27C111.788 540.27 112.178 540.348 112.526 540.504C112.874 540.648 113.198 540.894 113.498 541.242L112.436 542.34C112.256 542.148 112.058 542.01 111.842 541.926C111.626 541.842 111.374 541.8 111.086 541.8C110.486 541.8 109.994 541.992 109.61 542.376C109.226 542.76 109.034 543.342 109.034 544.122ZM117.993 549.18C117.213 549.18 116.505 548.988 115.869 548.604C115.233 548.208 114.729 547.674 114.357 547.002C113.997 546.33 113.817 545.574 113.817 544.734C113.817 543.894 113.997 543.138 114.357 542.466C114.729 541.794 115.227 541.26 115.851 540.864C116.487 540.468 117.201 540.27 117.993 540.27C118.641 540.27 119.217 540.408 119.721 540.684C120.237 540.948 120.651 541.32 120.963 541.8C121.275 542.268 121.449 542.814 121.485 543.438V546.012C121.449 546.624 121.275 547.17 120.963 547.65C120.663 548.13 120.255 548.508 119.739 548.784C119.235 549.048 118.653 549.18 117.993 549.18ZM118.263 547.65C119.067 547.65 119.715 547.38 120.207 546.84C120.699 546.288 120.945 545.586 120.945 544.734C120.945 544.146 120.831 543.636 120.603 543.204C120.387 542.76 120.075 542.418 119.667 542.178C119.259 541.926 118.785 541.8 118.245 541.8C117.705 541.8 117.225 541.926 116.805 542.178C116.397 542.43 116.073 542.778 115.833 543.222C115.605 543.654 115.491 544.152 115.491 544.716C115.491 545.292 115.605 545.802 115.833 546.246C116.073 546.678 116.403 547.02 116.823 547.272C117.243 547.524 117.723 547.65 118.263 547.65ZM120.837 549V546.696L121.143 544.608L120.837 542.538V540.45H122.475V549H120.837ZM129.334 549.18C128.686 549.18 128.098 549.048 127.57 548.784C127.054 548.508 126.64 548.13 126.328 547.65C126.016 547.17 125.842 546.624 125.806 546.012V543.438C125.842 542.814 126.016 542.268 126.328 541.8C126.652 541.32 127.072 540.948 127.588 540.684C128.116 540.408 128.698 540.27 129.334 540.27C130.114 540.27 130.816 540.468 131.44 540.864C132.076 541.26 132.574 541.794 132.934 542.466C133.294 543.138 133.474 543.894 133.474 544.734C133.474 545.574 133.294 546.33 132.934 547.002C132.574 547.674 132.076 548.208 131.44 548.604C130.816 548.988 130.114 549.18 129.334 549.18ZM124.834 552.582V540.45H126.454V542.7L126.148 544.77L126.454 546.858V552.582H124.834ZM129.064 547.65C129.604 547.65 130.078 547.524 130.486 547.272C130.894 547.02 131.218 546.678 131.458 546.246C131.698 545.802 131.818 545.292 131.818 544.716C131.818 544.152 131.698 543.648 131.458 543.204C131.218 542.76 130.894 542.418 130.486 542.178C130.078 541.926 129.61 541.8 129.082 541.8C128.542 541.8 128.068 541.926 127.66 542.178C127.252 542.418 126.934 542.76 126.706 543.204C126.478 543.648 126.364 544.158 126.364 544.734C126.364 545.298 126.472 545.802 126.688 546.246C126.916 546.678 127.234 547.02 127.642 547.272C128.062 547.524 128.536 547.65 129.064 547.65ZM135.31 549V540.45H136.93V549H135.31ZM136.93 544.122L136.318 543.852C136.318 542.76 136.57 541.89 137.074 541.242C137.578 540.594 138.304 540.27 139.252 540.27C139.684 540.27 140.074 540.348 140.422 540.504C140.77 540.648 141.094 540.894 141.394 541.242L140.332 542.34C140.152 542.148 139.954 542.01 139.738 541.926C139.522 541.842 139.27 541.8 138.982 541.8C138.382 541.8 137.89 541.992 137.506 542.376C137.122 542.76 136.93 543.342 136.93 544.122ZM146.159 549.18C145.319 549.18 144.563 548.982 143.891 548.586C143.219 548.19 142.685 547.656 142.289 546.984C141.893 546.3 141.695 545.538 141.695 544.698C141.695 543.87 141.893 543.126 142.289 542.466C142.685 541.794 143.219 541.26 143.891 540.864C144.563 540.468 145.319 540.27 146.159 540.27C146.987 540.27 147.737 540.468 148.409 540.864C149.093 541.248 149.633 541.776 150.029 542.448C150.425 543.12 150.623 543.87 150.623 544.698C150.623 545.538 150.425 546.3 150.029 546.984C149.633 547.656 149.093 548.19 148.409 548.586C147.737 548.982 146.987 549.18 146.159 549.18ZM146.159 547.614C146.699 547.614 147.179 547.488 147.599 547.236C148.019 546.984 148.349 546.642 148.589 546.21C148.829 545.766 148.949 545.262 148.949 544.698C148.949 544.146 148.823 543.654 148.571 543.222C148.331 542.79 148.001 542.454 147.581 542.214C147.173 541.962 146.699 541.836 146.159 541.836C145.619 541.836 145.139 541.962 144.719 542.214C144.299 542.454 143.969 542.79 143.729 543.222C143.489 543.654 143.369 544.146 143.369 544.698C143.369 545.262 143.489 545.766 143.729 546.21C143.969 546.642 144.299 546.984 144.719 547.236C145.139 547.488 145.619 547.614 146.159 547.614ZM156.409 549.18C155.557 549.18 154.789 548.988 154.105 548.604C153.421 548.208 152.881 547.674 152.485 547.002C152.089 546.33 151.891 545.568 151.891 544.716C151.891 543.876 152.083 543.12 152.467 542.448C152.863 541.776 153.391 541.248 154.051 540.864C154.723 540.468 155.473 540.27 156.301 540.27C157.093 540.27 157.789 540.45 158.389 540.81C159.001 541.17 159.475 541.668 159.811 542.304C160.159 542.94 160.333 543.66 160.333 544.464C160.333 544.584 160.327 544.716 160.315 544.86C160.303 544.992 160.279 545.148 160.243 545.328H153.025V543.978H159.379L158.785 544.5C158.785 543.924 158.683 543.438 158.479 543.042C158.275 542.634 157.987 542.322 157.615 542.106C157.243 541.878 156.793 541.764 156.265 541.764C155.713 541.764 155.227 541.884 154.807 542.124C154.387 542.364 154.063 542.7 153.835 543.132C153.607 543.564 153.493 544.074 153.493 544.662C153.493 545.262 153.613 545.79 153.853 546.246C154.093 546.69 154.435 547.038 154.879 547.29C155.323 547.53 155.833 547.65 156.409 547.65C156.889 547.65 157.327 547.566 157.723 547.398C158.131 547.23 158.479 546.978 158.767 546.642L159.811 547.704C159.403 548.184 158.899 548.55 158.299 548.802C157.711 549.054 157.081 549.18 156.409 549.18ZM167.451 549L164.787 545.256L164.481 544.968L161.115 540.45H163.077L165.507 543.78L165.813 544.032L169.413 549H167.451ZM160.953 549L164.481 544.248L165.399 545.436L162.861 549H160.953ZM165.939 544.95L165.003 543.798L167.361 540.45H169.251L165.939 544.95ZM172.328 549.18C171.992 549.18 171.71 549.066 171.482 548.838C171.266 548.598 171.158 548.316 171.158 547.992C171.158 547.656 171.266 547.38 171.482 547.164C171.71 546.936 171.992 546.822 172.328 546.822C172.664 546.822 172.94 546.936 173.156 547.164C173.384 547.38 173.498 547.656 173.498 547.992C173.498 548.316 173.384 548.598 173.156 548.838C172.94 549.066 172.664 549.18 172.328 549.18ZM179.698 549.18C178.858 549.18 178.096 548.982 177.412 548.586C176.74 548.19 176.206 547.656 175.81 546.984C175.426 546.3 175.234 545.544 175.234 544.716C175.234 543.876 175.426 543.12 175.81 542.448C176.206 541.776 176.74 541.248 177.412 540.864C178.096 540.468 178.858 540.27 179.698 540.27C180.358 540.27 180.97 540.396 181.534 540.648C182.098 540.888 182.584 541.242 182.992 541.71L181.912 542.79C181.648 542.478 181.324 542.244 180.94 542.088C180.568 541.92 180.154 541.836 179.698 541.836C179.158 541.836 178.678 541.962 178.258 542.214C177.838 542.454 177.508 542.79 177.268 543.222C177.028 543.654 176.908 544.152 176.908 544.716C176.908 545.28 177.028 545.778 177.268 546.21C177.508 546.642 177.838 546.984 178.258 547.236C178.678 547.488 179.158 547.614 179.698 547.614C180.154 547.614 180.568 547.536 180.94 547.38C181.324 547.212 181.654 546.972 181.93 546.66L182.992 547.74C182.596 548.196 182.11 548.55 181.534 548.802C180.97 549.054 180.358 549.18 179.698 549.18ZM188.347 549.18C187.507 549.18 186.751 548.982 186.079 548.586C185.407 548.19 184.873 547.656 184.477 546.984C184.081 546.3 183.883 545.538 183.883 544.698C183.883 543.87 184.081 543.126 184.477 542.466C184.873 541.794 185.407 541.26 186.079 540.864C186.751 540.468 187.507 540.27 188.347 540.27C189.175 540.27 189.925 540.468 190.597 540.864C191.281 541.248 191.821 541.776 192.217 542.448C192.613 543.12 192.811 543.87 192.811 544.698C192.811 545.538 192.613 546.3 192.217 546.984C191.821 547.656 191.281 548.19 190.597 548.586C189.925 548.982 189.175 549.18 188.347 549.18ZM188.347 547.614C188.887 547.614 189.367 547.488 189.787 547.236C190.207 546.984 190.537 546.642 190.777 546.21C191.017 545.766 191.137 545.262 191.137 544.698C191.137 544.146 191.011 543.654 190.759 543.222C190.519 542.79 190.189 542.454 189.769 542.214C189.361 541.962 188.887 541.836 188.347 541.836C187.807 541.836 187.327 541.962 186.907 542.214C186.487 542.454 186.157 542.79 185.917 543.222C185.677 543.654 185.557 544.146 185.557 544.698C185.557 545.262 185.677 545.766 185.917 546.21C186.157 546.642 186.487 546.984 186.907 547.236C187.327 547.488 187.807 547.614 188.347 547.614ZM194.636 549V540.45H196.256V549H194.636ZM200.414 549V543.834C200.414 543.198 200.216 542.7 199.82 542.34C199.436 541.968 198.95 541.782 198.362 541.782C197.966 541.782 197.612 541.866 197.3 542.034C196.988 542.202 196.736 542.436 196.544 542.736C196.352 543.036 196.256 543.396 196.256 543.816L195.59 543.492C195.59 542.844 195.728 542.28 196.004 541.8C196.292 541.32 196.682 540.948 197.174 540.684C197.666 540.408 198.218 540.27 198.83 540.27C199.43 540.27 199.97 540.402 200.45 540.666C200.942 540.93 201.326 541.302 201.602 541.782C201.89 542.262 202.034 542.832 202.034 543.492V549H200.414ZM206.192 549V543.834C206.192 543.198 205.994 542.7 205.598 542.34C205.214 541.968 204.734 541.782 204.158 541.782C203.762 541.782 203.402 541.866 203.078 542.034C202.766 542.202 202.514 542.436 202.322 542.736C202.13 543.036 202.034 543.396 202.034 543.816L201.116 543.492C201.152 542.832 201.326 542.268 201.638 541.8C201.962 541.32 202.376 540.948 202.88 540.684C203.384 540.408 203.936 540.27 204.536 540.27C205.16 540.27 205.718 540.402 206.21 540.666C206.702 540.93 207.092 541.302 207.38 541.782C207.68 542.262 207.83 542.838 207.83 543.51V549H206.192Z" fill="#707A8A"/>
<defs>
<clipPath id="clip0_50_61">
<rect width="32" height="32" fill="white" transform="translate(72 386.667)"/>
</clipPath>
<clipPath id="clip1_50_61">
<rect width="32" height="32" fill="white" transform="translate(134 386.667)"/>
</clipPath>
<clipPath id="clip2_50_61">
<rect width="32" height="32" fill="white" transform="translate(10 448.667)"/>
</clipPath>
<clipPath id="clip3_50_61">
<rect width="32" height="32" fill="white" transform="translate(72 448.667)"/>
</clipPath>
<clipPath id="clip4_50_61">
<rect width="32" height="32" fill="white" transform="translate(196 448.667)"/>
</clipPath>
</defs>
</svg>
