<svg width="18" height="20" viewBox="0 0 18 20" fill="none" xmlns="http://www.w3.org/2000/svg">
<path d="M5.2832 8.76208C4.81836 8.13239 4.5625 7.36755 4.5625 6.56247C4.5625 4.21606 6.73101 2.44114 9.04336 2.932C9.13789 2.06677 9.47305 1.27263 9.98047 0.61872C5.10965 -0.478662 0.5 3.24981 0.5 8.2031C0.5 9.56833 0.855859 10.9 1.53047 12.0722C2.37969 10.5968 3.69922 9.42458 5.2832 8.76208Z" fill="#1E2329"/>
<path d="M9.07109 4.15198C7.43836 3.60768 5.73438 4.83174 5.73438 6.56252C5.73438 7.25041 6.00703 7.89534 6.49102 8.37073C7.65879 8.0951 8.88801 8.0951 10.0559 8.37073C10.423 8.00979 10.6687 7.5512 10.766 7.05041C9.87734 6.34612 9.25352 5.32112 9.07109 4.15198Z" fill="#1E2329"/>
<path d="M2.59216 12.5781H13.9547C12.8035 10.6387 10.6879 9.33594 8.27341 9.33594C5.85896 9.33594 3.74333 10.6387 2.59216 12.5781Z" fill="#1E2329"/>
<path d="M11.8148 7.6762C11.693 8.06604 11.507 8.43284 11.2637 8.76213C12.8477 9.42463 14.1672 10.5969 15.0164 12.0723C15.8314 10.6555 16.1764 9.01213 16.0039 7.3844C14.6988 8.17381 13.1304 8.24104 11.8148 7.6762Z" fill="#1E2329"/>
<path d="M13.625 0C11.7266 0 10.1875 1.53906 10.1875 3.4375C10.1875 5.33594 11.7266 6.875 13.625 6.875C15.5234 6.875 17.0625 5.33594 17.0625 3.4375C17.0625 1.53906 15.5234 0 13.625 0ZM15.2895 3.26602L14.0395 4.51602C13.812 4.74355 13.4403 4.74578 13.2105 4.51602L12.5855 3.89102C12.357 3.66211 12.357 3.29102 12.5855 3.06211C12.8145 2.83359 13.1855 2.83359 13.4145 3.06211L13.625 3.27305L14.4605 2.43711C14.6895 2.20859 15.0605 2.20859 15.2895 2.43711C15.518 2.66602 15.518 3.03711 15.2895 3.26602Z" fill="#1E2329"/>
<path d="M14.6094 13.5H1.95312C1.3059 13.5 0.78125 14.0247 0.78125 14.6719V18.5781C0.78125 19.2253 1.3059 19.75 1.95312 19.75H14.6094C15.2566 19.75 15.7812 19.2253 15.7812 18.5781V14.6719C15.7812 14.0247 15.2566 13.5 14.6094 13.5ZM3.28125 17.1721C2.95766 17.1721 2.69512 16.9095 2.69512 16.5859C2.69512 16.2623 2.95766 15.9998 3.28125 15.9998C3.60484 15.9998 3.86738 16.2623 3.86738 16.5859C3.86738 16.9095 3.60484 17.1721 3.28125 17.1721ZM5.78125 17.1721C5.45766 17.1721 5.19512 16.9095 5.19512 16.5859C5.19512 16.2623 5.45766 15.9998 5.78125 15.9998C6.10484 15.9998 6.36738 16.2623 6.36738 16.5859C6.36738 16.9095 6.10484 17.1721 5.78125 17.1721ZM8.28125 17.1721C7.95766 17.1721 7.69512 16.9095 7.69512 16.5859C7.69512 16.2623 7.95766 15.9998 8.28125 15.9998C8.60484 15.9998 8.86738 16.2623 8.86738 16.5859C8.86738 16.9095 8.60484 17.1721 8.28125 17.1721ZM10.7812 17.1721C10.4577 17.1721 10.1951 16.9095 10.1951 16.5859C10.1951 16.2623 10.4577 15.9998 10.7812 15.9998C11.1048 15.9998 11.3674 16.2623 11.3674 16.5859C11.3674 16.9095 11.1048 17.1721 10.7812 17.1721ZM13.2812 17.1721C12.9577 17.1721 12.6951 16.9095 12.6951 16.5859C12.6951 16.2623 12.9577 15.9998 13.2812 15.9998C13.6048 15.9998 13.8674 16.2623 13.8674 16.5859C13.8674 16.9095 13.6048 17.1721 13.2812 17.1721Z" fill="#1E2329"/>
</svg>
