<svg width="21" height="20" viewBox="0 0 21 20" fill="none" xmlns="http://www.w3.org/2000/svg">
<path fill-rule="evenodd" clip-rule="evenodd" d="M1.33337 5H19.6667V15H1.33337V5ZM18 6.66667H16.3334V13.3333H18V6.66667ZM5.91671 10C5.91671 9.55797 5.74111 9.13405 5.42855 8.82149C5.11599 8.50893 4.69207 8.33333 4.25004 8.33333C3.80801 8.33333 3.38409 8.50893 3.07153 8.82149C2.75897 9.13405 2.58337 9.55797 2.58337 10C2.58337 10.442 2.75897 10.866 3.07153 11.1785C3.38409 11.4911 3.80801 11.6667 4.25004 11.6667C4.69207 11.6667 5.11599 11.4911 5.42855 11.1785C5.74111 10.866 5.91671 10.442 5.91671 10ZM10.5 10C10.5 9.55797 10.3244 9.13405 10.0119 8.82149C9.69932 8.50893 9.2754 8.33333 8.83337 8.33333C8.39135 8.33333 7.96742 8.50893 7.65486 8.82149C7.3423 9.13405 7.16671 9.55797 7.16671 10C7.16671 10.442 7.3423 10.866 7.65486 11.1785C7.96742 11.4911 8.39135 11.6667 8.83337 11.6667C9.2754 11.6667 9.69932 11.4911 10.0119 11.1785C10.3244 10.866 10.5 10.442 10.5 10ZM15.0834 10C15.0834 9.55797 14.9078 9.13405 14.5952 8.82149C14.2827 8.50893 13.8587 8.33333 13.4167 8.33333C12.9747 8.33333 12.5508 8.50893 12.2382 8.82149C11.9256 9.13405 11.75 9.55797 11.75 10C11.75 10.442 11.9256 10.866 12.2382 11.1785C12.5508 11.4911 12.9747 11.6667 13.4167 11.6667C13.8587 11.6667 14.2827 11.4911 14.5952 11.1785C14.9078 10.866 15.0834 10.442 15.0834 10Z" fill="#1E2329"/>
</svg>
