<svg width="21" height="20" viewBox="0 0 21 20" fill="none" xmlns="http://www.w3.org/2000/svg">
<path fill-rule="evenodd" clip-rule="evenodd" d="M11.005 7.08332C11.005 7.46635 10.9296 7.84562 10.783 8.19948C10.6364 8.55335 10.4216 8.87488 10.1507 9.14572C9.8799 9.41656 9.55836 9.6314 9.2045 9.77797C8.85063 9.92455 8.47136 9.99999 8.08834 9.99999C7.70532 9.99999 7.32604 9.92455 6.97218 9.77797C6.61831 9.6314 6.29678 9.41656 6.02594 9.14572C5.75511 8.87488 5.54027 8.55335 5.39369 8.19948C5.24711 7.84562 5.17167 7.46635 5.17167 7.08332C5.17167 6.30978 5.47896 5.56791 6.02594 5.02093C6.57292 4.47395 7.31479 4.16666 8.08834 4.16666C8.86189 4.16666 9.60375 4.47395 10.1507 5.02093C10.6977 5.56791 11.005 6.30978 11.005 7.08332ZM15.1717 8.12499C15.4479 8.12499 15.7129 8.23474 15.9082 8.43009C16.1036 8.62544 16.2133 8.89039 16.2133 9.16666C16.2133 9.44292 16.1036 9.70788 15.9082 9.90323C15.7129 10.0986 15.4479 10.2083 15.1717 10.2083C14.8954 10.2083 14.6305 10.0986 14.4351 9.90323C14.2398 9.70788 14.13 9.44292 14.13 9.16666C14.13 8.89039 14.2398 8.62544 14.4351 8.43009C14.6305 8.23474 14.8954 8.12499 15.1717 8.12499ZM15.1717 6.04166C15.909 6.0414 16.6227 6.30189 17.1866 6.77706C17.7504 7.25224 18.1281 7.91149 18.2528 8.63825C18.3775 9.365 18.2411 10.1124 17.8679 10.7484C17.4947 11.3843 16.9086 11.8678 16.2133 12.1133V13.3333H17.5017V15.8333H16.2133V17.0833H14.13V12.1133C13.4367 11.8661 12.8528 11.3821 12.4812 10.7467C12.1096 10.1113 11.9741 9.36512 12.0986 8.63962C12.223 7.91411 12.5995 7.25579 13.1616 6.78056C13.7238 6.30533 14.4356 6.04367 15.1717 6.04166ZM6.005 11.6667C5.34196 11.6667 4.70608 11.93 4.23724 12.3989C3.7684 12.8677 3.505 13.5036 3.505 14.1667V16.6667H12.6717V14.1667C12.6717 13.5036 12.4083 12.8677 11.9394 12.3989C11.4706 11.93 10.8347 11.6667 10.1717 11.6667H6.005Z" fill="#1E2329"/>
</svg>
