<svg width="21" height="20" viewBox="0 0 21 20" fill="none" xmlns="http://www.w3.org/2000/svg">
<path fill-rule="evenodd" clip-rule="evenodd" d="M17.9984 9.13333C17.9882 7.37216 17.2816 5.68655 16.0328 4.44463C14.7841 3.20272 13.0946 2.50541 11.3334 2.505H11.3067L11.32 4.355H11.3334C12.6063 4.35498 13.8274 4.8591 14.7296 5.75707C15.6318 6.65504 16.1416 7.87377 16.1475 9.14666L17.9992 9.13166L17.9984 9.13333ZM15.075 9.15916C15.0706 8.67367 14.9704 8.19382 14.7802 7.7471C14.59 7.30038 14.3136 6.89556 13.9667 6.55583C13.6189 6.21337 13.2066 5.94328 12.7538 5.76119C12.3009 5.5791 11.8164 5.48862 11.3284 5.495L11.3425 7.34583C11.5879 7.3417 11.8315 7.38652 12.0593 7.47766C12.2871 7.56881 12.4945 7.70445 12.6692 7.87666C13.0317 8.23333 13.2167 8.7025 13.2234 9.17416L15.075 9.15916ZM17.1659 14.6658V11.6658H12.35L10.9942 12.84C9.66203 11.9728 8.52602 10.8366 7.65921 9.50416L8.83171 8.1475V3.33333H3.83337C3.83337 10.6967 9.80254 16.6667 17.1659 16.6667V14.6658Z" fill="#1E2329"/>
</svg>
