<svg width="13" height="12" viewBox="0 0 13 12" fill="none" xmlns="http://www.w3.org/2000/svg">
<path fill-rule="evenodd" clip-rule="evenodd" d="M12.4099 6C12.4099 6.78793 12.2547 7.56815 11.9532 8.2961C11.6517 9.02405 11.2097 9.68549 10.6526 10.2426C10.0954 10.7998 9.43397 11.2417 8.70601 11.5433C7.97806 11.8448 7.19784 12 6.40991 12C5.62198 12 4.84176 11.8448 4.11381 11.5433C3.38586 11.2417 2.72442 10.7998 2.16727 10.2426C1.61012 9.68549 1.16816 9.02405 0.866635 8.2961C0.565107 7.56815 0.409912 6.78793 0.409912 6C0.409912 4.4087 1.04205 2.88258 2.16727 1.75736C3.29249 0.632141 4.81861 0 6.40991 0C8.00121 0 9.52733 0.632141 10.6526 1.75736C11.7778 2.88258 12.4099 4.4087 12.4099 6ZM9.12058 3.01133L5.20991 6.922L3.39925 5.11133L2.22058 6.28933L5.20991 9.27867L10.2992 4.18933L9.12058 3.01133Z" fill="#2EBD85"/>
</svg>
