<svg width="13" height="13" viewBox="0 0 13 13" fill="none" xmlns="http://www.w3.org/2000/svg">
<path d="M4.47995 3.24642C4.52638 3.19996 4.5815 3.1631 4.64218 3.13795C4.70286 3.1128 4.76789 3.09985 4.83358 3.09985C4.89926 3.09985 4.9643 3.1128 5.02498 3.13795C5.08565 3.1631 5.14078 3.19996 5.1872 3.24642L8.1872 6.24642C8.23367 6.29285 8.27053 6.34797 8.29568 6.40865C8.32083 6.46933 8.33377 6.53437 8.33377 6.60005C8.33377 6.66573 8.32083 6.73077 8.29568 6.79145C8.27053 6.85212 8.23367 6.90725 8.1872 6.95367L5.1872 9.95367C5.14076 10.0001 5.08563 10.0369 5.02496 10.0621C4.96428 10.0872 4.89925 10.1002 4.83358 10.1002C4.7679 10.1002 4.70287 10.0872 4.6422 10.0621C4.58152 10.0369 4.52639 10.0001 4.47995 9.95367C4.43351 9.90724 4.39668 9.8521 4.37154 9.79143C4.34641 9.73075 4.33348 9.66572 4.33348 9.60005C4.33348 9.53437 4.34641 9.46934 4.37154 9.40867C4.39668 9.34799 4.43351 9.29286 4.47995 9.24642L7.12633 6.60005L4.47995 3.95367C4.43349 3.90725 4.39663 3.85212 4.37148 3.79145C4.34633 3.73077 4.33338 3.66573 4.33338 3.60005C4.33338 3.53437 4.34633 3.46933 4.37148 3.40865C4.39663 3.34797 4.43349 3.29285 4.47995 3.24642Z" fill="#8C8C8C" fill-opacity="0.6"/>
</svg>
