<svg width="15" height="15" viewBox="0 0 15 15" fill="none" xmlns="http://www.w3.org/2000/svg">
<g clip-path="url(#clip0_1_760)">
<path d="M10.6056 6.16258C10.6598 6.1084 10.7028 6.04408 10.7321 5.97329C10.7614 5.90251 10.7765 5.82664 10.7765 5.75002C10.7765 5.6734 10.7614 5.59753 10.7321 5.52674C10.7028 5.45595 10.6598 5.39163 10.6056 5.33745C10.5514 5.28328 10.4871 5.2403 10.4163 5.21098C10.3455 5.18166 10.2697 5.16656 10.193 5.16656C10.1164 5.16656 10.0406 5.18166 9.96977 5.21098C9.89898 5.2403 9.83466 5.28328 9.78048 5.33745L6.69305 8.42489L5.0638 6.79564C4.95438 6.68622 4.80598 6.62475 4.65123 6.62475C4.49649 6.62475 4.34809 6.68622 4.23867 6.79564C4.12925 6.90506 4.06778 7.05346 4.06778 7.2082C4.06778 7.36295 4.12925 7.51135 4.23867 7.62077L6.28048 9.66258C6.33465 9.71679 6.39896 9.75979 6.46975 9.78913C6.54054 9.81848 6.61642 9.83358 6.69305 9.83358C6.76968 9.83358 6.84556 9.81848 6.91635 9.78913C6.98714 9.75979 7.05145 9.71679 7.10561 9.66258L10.6056 6.16258Z" fill="#FF8300"/>
<path d="M8.09655 1.29757C7.56273 1.14161 6.99543 1.14161 6.46161 1.29757L3.12305 2.27188C2.63848 2.41337 2.21286 2.70816 1.91004 3.11203C1.60721 3.51591 1.4435 4.00709 1.44349 4.51188V6.34195C1.44349 7.93331 1.90316 9.49079 2.76723 10.8271C3.63129 12.1635 4.86297 13.2218 6.31417 13.8748C6.61712 14.0109 6.94545 14.0812 7.27755 14.0812C7.60964 14.0812 7.93797 14.0109 8.24092 13.8748C9.69171 13.2217 10.923 12.1636 11.7868 10.8275C12.6506 9.49139 13.1102 7.93426 13.1103 6.34326V4.51145C13.1104 4.00675 12.9467 3.51564 12.644 3.11183C12.3412 2.70802 11.9157 2.4133 11.4312 2.27188L8.09699 1.29801L8.09655 1.29757ZM6.78842 2.41757C7.10868 2.32395 7.44904 2.32395 7.7693 2.41757L11.1035 3.39145C11.3457 3.46223 11.5585 3.60964 11.7099 3.81157C11.8612 4.01351 11.9431 4.25908 11.943 4.51145V6.34326C11.943 7.70948 11.5485 9.04662 10.8067 10.194C10.065 11.3413 9.00766 12.25 7.76186 12.8108C7.60938 12.8794 7.44408 12.9148 7.27689 12.9148C7.1097 12.9148 6.94441 12.8794 6.79192 12.8108C5.54577 12.25 4.48814 11.3411 3.74616 10.1935C3.00419 9.04595 2.60946 7.7085 2.60942 6.34195V4.51188C2.60942 3.99345 2.95155 3.53713 3.44942 3.39188L6.78799 2.41757H6.78842Z" fill="#FF8300"/>
</g>
<defs>
<clipPath id="clip0_1_760">
<rect width="14" height="14" fill="white" transform="translate(0.276672 0.5)"/>
</clipPath>
</defs>
</svg>
