<svg width="44" height="44" viewBox="0 0 44 44" fill="none" xmlns="http://www.w3.org/2000/svg">
<path d="M21.6417 43.2835C33.5941 43.2835 43.2835 33.5941 43.2835 21.6417C43.2835 9.68933 33.5941 0 21.6417 0C9.68933 0 0 9.68933 0 21.6417C0 33.5941 9.68933 43.2835 21.6417 43.2835Z" fill="#FF8300"/>
<path d="M17.8423 21.7994C18.1773 21.7994 18.4488 21.6636 18.4488 21.4961C18.4488 21.3287 18.1773 21.1929 17.8423 21.1929C17.5073 21.1929 17.2357 21.3287 17.2357 21.4961C17.2357 21.6636 17.5073 21.7994 17.8423 21.7994Z" fill="#009245"/>
<path d="M31.4824 32.6591C30.854 32.5839 30.5532 32.5718 30.427 32.5572C30.279 32.5402 30.0364 32.5184 29.886 32.5062C28.554 32.4043 25.9628 32.1326 23.9709 31.8512C22.4885 31.6425 19.6134 31.116 16.9082 29.129C16.0372 28.4884 15.2608 27.7388 14.6664 26.8289C19.514 30.1237 24.8637 30.6114 30.4901 29.6288C29.4371 29.4929 28.3817 29.3716 27.3288 29.2309C24.4974 28.8548 21.7825 28.1051 19.3466 26.5572C17.6773 25.4969 16.2119 24.2183 15.3991 22.3477C15.2657 22.0396 15.1832 21.7096 15.0789 21.3918C17.112 23.146 19.2738 24.575 21.7339 25.5333C24.1893 26.4917 26.7198 26.9235 29.3595 26.6688C28.4836 26.2782 27.5884 25.9603 26.7052 25.6158C24.2596 24.655 21.928 23.4953 20.0793 21.5641C19.4703 20.9284 18.9098 20.2418 18.5289 19.281C22.2143 22.0226 26.8435 23.9442 28.9179 23.6094L28.7699 23.2139C28.6826 22.981 28.5855 22.7505 28.4764 22.5248C27.5399 20.5984 26.1424 19.0578 24.4513 17.7574C23.6628 17.1508 22.8621 16.5491 22.1561 15.8528C21.3652 15.074 21.37 14.2175 22.2168 13.5212C22.8621 12.9899 23.6361 12.5434 24.4246 12.2717C25.5407 11.8859 26.7222 11.6967 27.8989 11.4201C27.4331 10.5904 26.7344 9.94256 25.793 9.73875C24.8249 9.5301 23.7986 9.38938 22.8209 9.47915C21.6345 9.58833 20.4408 9.57135 19.2568 9.43791C15.8431 9.04971 13.4436 10.7408 12.575 14.0622C12.2038 15.484 12.1189 16.9276 12.1965 18.3906C12.2087 18.6211 12.0995 18.9632 11.9272 19.0845C10.093 20.3825 9.58595 22.2119 9.90378 24.3008C9.97414 24.7691 10.1343 25.9142 10.8621 27.2729C12.199 29.7719 14.3559 31.0578 15.2269 31.5624C21.5374 35.2236 31.0724 32.9017 31.4776 32.6639C31.4873 32.6639 31.4849 32.6591 31.4824 32.6591ZM18.1262 11.7064C18.4513 11.7064 18.7158 11.8374 18.7158 12.0024C18.7158 12.165 18.4513 12.2984 18.1262 12.2984C17.8011 12.2984 17.5366 12.1674 17.5366 12.0024C17.5366 11.8374 17.8011 11.7064 18.1262 11.7064Z" fill="white"/>
</svg>
