<svg width="168" height="44" viewBox="0 0 168 44" fill="none" xmlns="http://www.w3.org/2000/svg">
<path d="M21.6417 43.2835C33.5941 43.2835 43.2835 33.5941 43.2835 21.6417C43.2835 9.68933 33.5941 0 21.6417 0C9.68933 0 0 9.68933 0 21.6417C0 33.5941 9.68933 43.2835 21.6417 43.2835Z" fill="#FF8300"/>
<path d="M17.8423 21.7994C18.1773 21.7994 18.4488 21.6636 18.4488 21.4961C18.4488 21.3287 18.1773 21.1929 17.8423 21.1929C17.5073 21.1929 17.2357 21.3287 17.2357 21.4961C17.2357 21.6636 17.5073 21.7994 17.8423 21.7994Z" fill="#009245"/>
<path d="M31.4824 32.6591C30.854 32.5839 30.5532 32.5718 30.427 32.5572C30.279 32.5402 30.0364 32.5184 29.886 32.5062C28.554 32.4043 25.9628 32.1326 23.9709 31.8512C22.4885 31.6425 19.6134 31.116 16.9082 29.129C16.0372 28.4884 15.2608 27.7388 14.6664 26.8289C19.514 30.1237 24.8637 30.6114 30.4901 29.6288C29.4371 29.4929 28.3817 29.3716 27.3288 29.2309C24.4974 28.8548 21.7825 28.1051 19.3466 26.5572C17.6773 25.4969 16.2119 24.2183 15.3991 22.3477C15.2657 22.0396 15.1832 21.7096 15.0789 21.3918C17.112 23.146 19.2738 24.575 21.7339 25.5333C24.1893 26.4917 26.7198 26.9235 29.3595 26.6688C28.4836 26.2782 27.5884 25.9603 26.7052 25.6158C24.2596 24.655 21.928 23.4953 20.0793 21.5641C19.4703 20.9284 18.9098 20.2418 18.5289 19.281C22.2143 22.0226 26.8435 23.9442 28.9179 23.6094L28.7699 23.2139C28.6826 22.981 28.5855 22.7505 28.4764 22.5248C27.5399 20.5984 26.1424 19.0578 24.4513 17.7574C23.6628 17.1508 22.8621 16.5491 22.1561 15.8528C21.3652 15.074 21.37 14.2175 22.2168 13.5212C22.8621 12.9899 23.6361 12.5434 24.4246 12.2717C25.5407 11.8859 26.7222 11.6967 27.8989 11.4201C27.4331 10.5904 26.7344 9.94256 25.793 9.73875C24.8249 9.5301 23.7986 9.38938 22.8209 9.47915C21.6345 9.58833 20.4408 9.57135 19.2568 9.43791C15.8431 9.04971 13.4436 10.7408 12.575 14.0622C12.2038 15.484 12.1189 16.9276 12.1965 18.3906C12.2087 18.6211 12.0995 18.9632 11.9272 19.0845C10.093 20.3825 9.58595 22.2119 9.90378 24.3008C9.97414 24.7691 10.1343 25.9142 10.8621 27.2729C12.199 29.7719 14.3559 31.0578 15.2269 31.5624C21.5374 35.2236 31.0724 32.9017 31.4776 32.6639C31.4873 32.6639 31.4849 32.6591 31.4824 32.6591ZM18.1262 11.7064C18.4513 11.7064 18.7158 11.8374 18.7158 12.0024C18.7158 12.165 18.4513 12.2984 18.1262 12.2984C17.8011 12.2984 17.5366 12.1674 17.5366 12.0024C17.5366 11.8374 17.8011 11.7064 18.1262 11.7064Z" fill="white"/>
<path d="M63.1286 11.2781H66.8175V24.5821C66.8175 26.0404 66.4728 27.3231 65.7834 28.4301C65.1007 29.5371 64.1395 30.4021 62.8999 31.0252C61.6603 31.6417 60.212 31.95 58.5548 31.95C56.8909 31.95 55.4392 31.6417 54.1996 31.0252C52.9601 30.4021 51.9989 29.5371 51.3161 28.4301C50.6334 27.3231 50.292 26.0404 50.292 24.5821V11.2781H53.9809V24.2738C53.9809 25.1223 54.1665 25.878 54.5377 26.5409C54.9155 27.2038 55.4459 27.7241 56.1286 28.102C56.8114 28.4732 57.6201 28.6588 58.5548 28.6588C59.4894 28.6588 60.2981 28.4732 60.9809 28.102C61.6703 27.7241 62.2006 27.2038 62.5718 26.5409C62.943 25.878 63.1286 25.1223 63.1286 24.2738V11.2781ZM74.2675 11.2781V31.6417H70.668V11.2781H74.2675ZM85.5952 16.369V19.1531H76.8154V16.369H85.5952ZM78.983 12.7099H82.5825V27.048C82.5825 27.5319 82.6554 27.9031 82.8012 28.1616C82.9537 28.4135 83.1525 28.5859 83.3978 28.6787C83.6431 28.7715 83.9148 28.8179 84.2131 28.8179C84.4385 28.8179 84.644 28.8013 84.8296 28.7681C85.0218 28.735 85.1677 28.7052 85.2671 28.6787L85.8736 31.4926C85.6814 31.5589 85.4063 31.6318 85.0484 31.7113C84.697 31.7909 84.2662 31.8373 83.7557 31.8505C82.8542 31.877 82.0422 31.7412 81.3197 31.4429C80.5971 31.1379 80.0237 30.6673 79.5995 30.0309C79.1819 29.3946 78.9764 28.5991 78.983 27.6446V12.7099ZM88.6055 31.6417V16.369H92.0956V18.9145H92.2547C92.5331 18.0328 93.0104 17.3534 93.6865 16.8761C94.3693 16.3922 95.1481 16.1502 96.0231 16.1502C96.222 16.1502 96.4441 16.1602 96.6893 16.1801C96.9412 16.1933 97.15 16.2165 97.3158 16.2497V19.5608C97.1633 19.5077 96.9214 19.4613 96.5899 19.4216C96.2651 19.3752 95.9502 19.352 95.6453 19.352C94.9891 19.352 94.3991 19.4945 93.8754 19.7795C93.3584 20.0579 92.9507 20.4457 92.6524 20.9429C92.3541 21.44 92.205 22.0134 92.205 22.663V31.6417H88.6055ZM103.829 31.95C102.861 31.95 101.989 31.7776 101.213 31.4329C100.445 31.0816 99.8347 30.5645 99.3839 29.8818C98.9398 29.199 98.7178 28.3572 98.7178 27.3562C98.7178 26.4945 98.8768 25.7819 99.195 25.2184C99.5132 24.655 99.9474 24.2042 100.498 23.8662C101.048 23.5281 101.668 23.2729 102.357 23.1005C103.053 22.9216 103.772 22.7923 104.515 22.7127C105.41 22.6199 106.135 22.5371 106.692 22.4642C107.249 22.3846 107.653 22.2653 107.905 22.1062C108.164 21.9405 108.293 21.6853 108.293 21.3406V21.2809C108.293 20.5319 108.071 19.9519 107.627 19.5409C107.183 19.1299 106.543 18.9244 105.708 18.9244C104.826 18.9244 104.127 19.1166 103.61 19.5011C103.099 19.8856 102.755 20.3396 102.576 20.8633L99.2149 20.386C99.4801 19.458 99.9176 18.6824 100.527 18.0593C101.137 17.4296 101.883 16.959 102.765 16.6474C103.646 16.3292 104.621 16.1701 105.688 16.1701C106.424 16.1701 107.156 16.2563 107.885 16.4287C108.615 16.601 109.281 16.886 109.884 17.2838C110.487 17.6749 110.971 18.2085 111.336 18.8846C111.707 19.5608 111.892 20.4059 111.892 21.4201V31.6417H108.432V29.5437H108.313C108.094 29.968 107.786 30.3657 107.388 30.7369C106.997 31.1015 106.503 31.3965 105.907 31.6218C105.317 31.8406 104.624 31.95 103.829 31.95ZM104.763 29.3051C105.486 29.3051 106.112 29.1626 106.642 28.8775C107.173 28.5859 107.58 28.2014 107.865 27.7241C108.157 27.2468 108.303 26.7265 108.303 26.163V24.3633C108.19 24.4561 107.998 24.5423 107.726 24.6218C107.461 24.7014 107.163 24.771 106.831 24.8306C106.5 24.8903 106.172 24.9433 105.847 24.9897C105.522 25.0361 105.24 25.0759 105.002 25.1091C104.465 25.182 103.984 25.3013 103.56 25.467C103.136 25.6327 102.801 25.8647 102.556 26.163C102.311 26.4547 102.188 26.8325 102.188 27.2966C102.188 27.9594 102.43 28.4599 102.914 28.798C103.398 29.136 104.014 29.3051 104.763 29.3051ZM115.512 37.369V16.369H119.052V18.8946H119.26C119.446 18.5234 119.708 18.1289 120.046 17.7113C120.384 17.2871 120.841 16.9258 121.418 16.6275C121.995 16.3226 122.731 16.1701 123.625 16.1701C124.805 16.1701 125.869 16.4717 126.817 17.075C127.772 17.6716 128.527 18.5565 129.084 19.7298C129.648 20.8965 129.929 22.3283 129.929 24.0252C129.929 25.7023 129.654 27.1275 129.104 28.3008C128.554 29.4741 127.805 30.369 126.857 30.9855C125.909 31.602 124.835 31.9102 123.635 31.9102C122.76 31.9102 122.035 31.7644 121.458 31.4727C120.881 31.181 120.417 30.8297 120.066 30.4187C119.721 30.0011 119.453 29.6067 119.26 29.2355H119.111V37.369H115.512ZM119.042 24.0054C119.042 24.993 119.181 25.8581 119.459 26.6005C119.744 27.343 120.152 27.923 120.682 28.3406C121.219 28.7516 121.869 28.9571 122.631 28.9571C123.427 28.9571 124.093 28.7449 124.63 28.3207C125.167 27.8898 125.571 27.3032 125.843 26.5608C126.121 25.8117 126.26 24.9599 126.26 24.0054C126.26 23.0574 126.124 22.2156 125.853 21.4798C125.581 20.744 125.177 20.1673 124.64 19.7497C124.103 19.3321 123.433 19.1233 122.631 19.1233C121.862 19.1233 121.209 19.3254 120.672 19.7298C120.135 20.1341 119.728 20.7009 119.449 21.4301C119.178 22.1592 119.042 23.0177 119.042 24.0054ZM133.012 31.6417V16.369H136.502V18.9145H136.661C136.939 18.0328 137.417 17.3534 138.093 16.8761C138.776 16.3922 139.554 16.1502 140.429 16.1502C140.628 16.1502 140.85 16.1602 141.096 16.1801C141.347 16.1933 141.556 16.2165 141.722 16.2497V19.5608C141.57 19.5077 141.328 19.4613 140.996 19.4216C140.671 19.3752 140.356 19.352 140.052 19.352C139.395 19.352 138.805 19.4945 138.282 19.7795C137.765 20.0579 137.357 20.4457 137.059 20.9429C136.76 21.44 136.611 22.0134 136.611 22.663V31.6417H133.012ZM150.146 31.94C148.655 31.94 147.362 31.6119 146.269 30.9556C145.175 30.2994 144.326 29.3813 143.723 28.2014C143.126 27.0215 142.828 25.6427 142.828 24.065C142.828 22.4874 143.126 21.1053 143.723 19.9187C144.326 18.7322 145.175 17.8108 146.269 17.1545C147.362 16.4983 148.655 16.1701 150.146 16.1701C151.638 16.1701 152.93 16.4983 154.024 17.1545C155.118 17.8108 155.963 18.7322 156.56 19.9187C157.163 21.1053 157.465 22.4874 157.465 24.065C157.465 25.6427 157.163 27.0215 156.56 28.2014C155.963 29.3813 155.118 30.2994 154.024 30.9556C152.93 31.6119 151.638 31.94 150.146 31.94ZM150.166 29.0565C150.975 29.0565 151.651 28.8344 152.195 28.3903C152.738 27.9395 153.143 27.3363 153.408 26.5806C153.68 25.825 153.815 24.9831 153.815 24.0551C153.815 23.1204 153.68 22.2752 153.408 21.5196C153.143 20.7573 152.738 20.1507 152.195 19.7C151.651 19.2492 150.975 19.0238 150.166 19.0238C149.338 19.0238 148.648 19.2492 148.098 19.7C147.555 20.1507 147.147 20.7573 146.875 21.5196C146.61 22.2752 146.477 23.1204 146.477 24.0551C146.477 24.9831 146.61 25.825 146.875 26.5806C147.147 27.3363 147.555 27.9395 148.098 28.3903C148.648 28.8344 149.338 29.0565 150.166 29.0565Z" fill="black"/>
</svg>
